<svg id="Layer_1" data-name="Layer 1" xmlns="http://www.w3.org/2000/svg" viewBox="0 0 603.5 603.51"><defs><style>.cls-1{fill:#006192;}.cls-2{fill:#fff;}</style></defs><path class="cls-1" d="M558.91,0H44.59A44.09,44.09,0,0,0,0,43.58H0V559.92A44.08,44.08,0,0,0,44.59,603.5H558.91a44.08,44.08,0,0,0,44.59-43.58h0V43.59A44.1,44.1,0,0,0,558.91,0Z"/><path class="cls-2" d="M89.52,226.32H179v288H89.52Zm44.93-142.5a52,52,0,1,1-52,52h0a52,52,0,0,1,52-52"/><path class="cls-2" d="M235.37,226.32H321.2v39.39h1.17A94.06,94.06,0,0,1,407,219.27c90.69,0,107.29,59.68,107.29,137.13V514.32H424.8V374.17c0-33.52,0-76.44-46.61-76.44s-53.64,36.38-53.64,73.93V514.15H235.37Z"/></svg>