<svg id="Layer_1" data-name="Layer 1" xmlns="http://www.w3.org/2000/svg" viewBox="0 0 396.04 127.41"><defs><style>.cls-1{fill:#010101;}.cls-2{fill:#232021;}.cls-3{fill:#181818;}.cls-4{fill:#161616;}</style></defs><path class="cls-1" d="M56.9,57.9l-1.48-7.15a1.1,1.1,0,0,1,.25-.87L57,48.18a1.4,1.4,0,0,0,.27-.91,53.29,53.29,0,0,0-.5-8.32,69,69,0,0,0-19-36.44,1.72,1.72,0,0,0-2.93.14q-2.7,3.27-5.14,6.54A89.31,89.31,0,0,0,16,35.66,63.76,63.76,0,0,1,36.14.14a.55.55,0,0,1,.74,0C52.72,14.81,61.85,36.32,56.9,57.9Z"/><path class="cls-2" d="M56.9,57.9c.15.79.44,1.25.86,1.38a.56.56,0,0,0,.67-.44v0l1.12-4.49c.24-.94.62-1,1.16-.29q4.53,6.33,9.48,12.79c2.33,3,1.86,7.46,1.43,11a.57.57,0,0,1-.57.49l-14.85.08a.55.55,0,0,0-.54.51l-.55,5.15a.57.57,0,0,1-.55.5l-9.3,0a1.13,1.13,0,0,0-1.13,1.08q-1.06,20.68-2,40.47c0,.78-.25,1.2-.65,1.27-.24,0-.47-.18-.51-.49,0,0,0,0,0-.07q-.56-12.85-2.4-70.33c0-.65-.27-.86-.77-.63a.84.84,0,0,0-.44.75l-2.42,53a1.11,1.11,0,0,1-.36.87.45.45,0,0,1-.56,0,1.11,1.11,0,0,1-.35-.83l-.95-24a.68.68,0,0,0-.48-.65,5.85,5.85,0,0,0-3.16,0,.68.68,0,0,0-.49.66q-.27,9-.62,17.9c-.1,2.54-1.24,2.67-1.5.09q-.93-9.15-1.93-18.27a.55.55,0,0,0-.55-.48l-5.48-.19a.59.59,0,0,1-.56-.54l-.42-4.81a.62.62,0,0,0-.51-.59c-5.23-1-10.92-.21-16.24-.39a.61.61,0,0,1-.57-.51A35.61,35.61,0,0,1,.33,69a1.72,1.72,0,0,1,.39-.88L12.61,54c.21-.25.36-.22.46.1l1.64,5.14a.52.52,0,0,0,.47.4l.18,0a.22.22,0,0,0,.17-.24A22.83,22.83,0,0,0,15.4,55,47.18,47.18,0,0,1,16,35.66,89.31,89.31,0,0,1,29.67,9.19q2.45-3.27,5.14-6.54a1.72,1.72,0,0,1,2.93-.14A69,69,0,0,1,56.76,39a53.29,53.29,0,0,1,.5,8.32,1.4,1.4,0,0,1-.27.91l-1.32,1.7a1.1,1.1,0,0,0-.25.87ZM45.48,29.82A8.78,8.78,0,1,0,36.7,38.6,8.78,8.78,0,0,0,45.48,29.82Z"/><rect class="cls-3" x="91.31" y="12.39" width="1.26" height="102.96" rx="0.27"/><path class="cls-3" d="M318.75,29.65l-3.39.15a.71.71,0,0,1-.7-.42,3.91,3.91,0,0,1-.1-2.46.71.71,0,0,1,.66-.51l3.54-.12a.51.51,0,0,0,.52-.49c.24-7.34.57-14.6,10.83-13.11a.92.92,0,0,1,.72.53,3.11,3.11,0,0,1,0,2.71.59.59,0,0,1-.7.28c-6.72-2-7.26,4.7-6.76,9.49a.59.59,0,0,0,.55.54l4.9.08a.68.68,0,0,1,.67.45,4,4,0,0,1,0,2.54.72.72,0,0,1-.69.5l-4.67-.18a.74.74,0,0,0-.81.66V53a.52.52,0,0,1-.47.55h0l-3.06-.11a.56.56,0,0,1-.48-.6l0-22.71a.48.48,0,0,0-.47-.5Z"/><circle class="cls-4" cx="176.63" cy="16.24" r="2.68"/><path class="cls-3" d="M129.88,21.15,130,53a.51.51,0,0,1-.5.53h-2.94a.51.51,0,0,1-.49-.53l0-37.27a.49.49,0,0,1,.48-.49h0l4.68.1a.74.74,0,0,1,.7.46l13.15,30.06c.31.69.62.69.92,0l13.32-29.82a.83.83,0,0,1,.69-.56l4.61-.09a.53.53,0,0,1,.49.57h0l-.07,36.85a.65.65,0,0,1-.48.63,6.58,6.58,0,0,1-3.21,0,.66.66,0,0,1-.48-.64l.21-30.09c0-1.24-.24-1.3-.75-.16L146.74,53.08a1.06,1.06,0,0,1-.68.6c-.86.21-1.43,0-1.73-.64q-7.17-16-14.25-31.94C130,20.8,129.88,20.82,129.88,21.15Z"/><path class="cls-3" d="M335.77,25.76l0-5.46a1,1,0,0,1,.39-.81,5.31,5.31,0,0,1,3.41-1,.5.5,0,0,1,.45.54l-.15,6.63a.54.54,0,0,0,.52.53h0l5.67.09a.63.63,0,0,1,.64.45,5,5,0,0,1,0,2.56.66.66,0,0,1-.65.48l-5.57-.06a.5.5,0,0,0-.51.48h0q-.36,9.61-.09,15.54.31,6.48,6.47,4.61a.5.5,0,0,1,.64.3v0c.47,1.75-.13,3-2,3.26q-9.48,1.38-9.13-8.87.1-2.88-.07-14.61a.53.53,0,0,0-.5-.55l-3.4-.13a.73.73,0,0,1-.67-.45,4.59,4.59,0,0,1,0-2.52.69.69,0,0,1,.66-.48l3.43-.06A.53.53,0,0,0,335.77,25.76Z"/><path class="cls-1" d="M45.48,29.82A8.78,8.78,0,1,1,36.7,21,8.78,8.78,0,0,1,45.48,29.82Zm-1.2-.11a7.57,7.57,0,1,0-7.57,7.57A7.57,7.57,0,0,0,44.28,29.71Z"/><path class="cls-4" d="M255.91,41.76A12.14,12.14,0,0,1,243.83,54h-2.36A12.15,12.15,0,0,1,229.25,41.9l0-3.94a12.17,12.17,0,0,1,12.09-12.22h2.36a12.15,12.15,0,0,1,12.21,12.09Zm-13.28,9.17c5.15,0,9.32-4.92,9.32-11h0c0-6.07-4.17-11-9.32-11h0c-5.15,0-9.32,4.92-9.32,11h0c0,6.07,4.17,11,9.32,11Z"/><path class="cls-4" d="M262.25,30c2.87-4.89,10.11-5,15-3.47a.87.87,0,0,1,.61.62,6.85,6.85,0,0,1,.05,3.25.36.36,0,0,1-.43.27l-.12,0c-3.14-1.76-9.54-2.81-11.65,1.1C261.84,39,284.32,38,278.5,49.53c-2.71,5.4-11.68,5.26-16.66,3.44a1,1,0,0,1-.61-.66,6.3,6.3,0,0,1,.13-3.34.39.39,0,0,1,.5-.25l.09.05c3.21,1.94,9.3,3.38,12.19.25C281,41.59,255.24,41.94,262.25,30Z"/><path class="cls-4" d="M310.65,41.83A12.15,12.15,0,0,1,298.5,54h-2.36A12.15,12.15,0,0,1,284,41.83V37.89a12.15,12.15,0,0,1,12.15-12.15h2.36a12.15,12.15,0,0,1,12.15,12.15Zm-13.34,9.08c5.14,0,9.35-4.85,9.39-10.92h0c0-6.06-4.09-11-9.24-11s-9.36,4.85-9.4,10.91S292.16,50.87,297.31,50.91Z"/><path class="cls-4" d="M189.64,39.28c-.57,9.48,7.56,14.35,15.67,9.76a.35.35,0,0,1,.48.11.28.28,0,0,1,0,.13,6.69,6.69,0,0,1-.14,2.85,1,1,0,0,1-.6.68c-24.56,10.6-27.45-33.72-.06-26.33a1,1,0,0,1,.66.6,5.51,5.51,0,0,1,.2,3.33.38.38,0,0,1-.46.26l-.1,0C198,26.45,190.13,31,189.64,39.28Z"/><path class="cls-4" d="M217.15,31.13q2.28-5.65,8.41-5.23a.8.8,0,0,1,.7.5,4.78,4.78,0,0,1,.21,3.19.53.53,0,0,1-.65.34c-12.07-3-9.53,16.83-9.5,22.94a.64.64,0,0,1-.49.62,6.46,6.46,0,0,1-3-.06.66.66,0,0,1-.48-.64V27.12a.65.65,0,0,1,.48-.63,6.39,6.39,0,0,1,3-.08.61.61,0,0,1,.48.61c0,1.65-.16,4.36.27,4.5C216.8,31.58,217,31.41,217.15,31.13Z"/><rect class="cls-3" x="162.94" y="37.93" width="27.22" height="4.04" rx="0.27" transform="translate(136.3 216.43) rotate(-89.9)"/><path class="cls-3" d="M127,86c0-7.48,1.57-14.58,11.15-12.9a.65.65,0,0,1,.59.58v2.56a.4.4,0,0,1-.45.36l-.13,0c-7.44-2.1-7,4.94-6.77,9.6a.54.54,0,0,0,.51.55l4.88,0c.34,0,.62.17.64.41l.17,2.47c0,.24-.24.46-.56.48h0l-5.39.13a.52.52,0,0,0-.5.54V113a.65.65,0,0,1-.49.64,7.12,7.12,0,0,1-3.09.27.67.67,0,0,1-.47-.66l0-22.43a.56.56,0,0,0-.49-.61L123,90.08a.65.65,0,0,1-.62-.43,5.53,5.53,0,0,1,0-2.56.67.67,0,0,1,.65-.49l3.43-.06A.52.52,0,0,0,127,86Z"/><path class="cls-3" d="M221.68,109.75c4.14-2.17,4-7.57.3-10.13s-10.77-4.92-14-9.12c-4.78-6.27-.38-13.17,6.48-14.81a24,24,0,0,1,12.29.27.85.85,0,0,1,.61.63,8.75,8.75,0,0,1,.05,3.81.39.39,0,0,1-.46.29l-.09,0c-4.33-2.2-13-3.4-15.72,2-5.4,10.67,24.76,10.6,17,26.31-3.52,7.1-15.51,6.32-21.56,3.79a.8.8,0,0,1-.49-.7l0-3.92c0-.34.15-.42.45-.23C210.61,110.43,217.16,112.12,221.68,109.75Z"/><path class="cls-3" d="M239.86,90.65q-.09,7.11,0,14.25c0,4.14,1.27,7.51,6.22,5.84a.51.51,0,0,1,.66.29h0a3.18,3.18,0,0,1-.15,2.57,1.07,1.07,0,0,1-.75.54c-5.15,1-9.48-.19-9.93-6a130.78,130.78,0,0,1-.13-17.2.82.82,0,0,0-.79-.87h0l-3.29,0a.55.55,0,0,1-.53-.52l0-1.94a1.11,1.11,0,0,1,1.5-1,4.45,4.45,0,0,0,2.79.12.64.64,0,0,0,.44-.66l-.25-5.26a.86.86,0,0,1,.41-.76,8.9,8.9,0,0,1,3.51-1.24.43.43,0,0,1,.47.39v6.55a1.16,1.16,0,0,0,1.18,1.13h0l5,0a.65.65,0,0,1,.64.48,4.38,4.38,0,0,1,0,2.3.68.68,0,0,1-.67.46l-5.66.07A.52.52,0,0,0,239.86,90.65Z"/><path class="cls-4" d="M299.5,90.14,296.2,90a.57.57,0,0,1-.57-.53l0-2.22a.53.53,0,0,1,.57-.45l3.31-.13a.58.58,0,0,0,.48-.6l.1-5.57a.74.74,0,0,1,.48-.7l3.18-1.06a.36.36,0,0,1,.46.26.27.27,0,0,1,0,.13l.12,7.08a.55.55,0,0,0,.52.53l5.59.12a.65.65,0,0,1,.65.46,4.72,4.72,0,0,1,0,2.27.67.67,0,0,1-.65.48l-5.7.06a.5.5,0,0,0-.5.5q-.06,7.68,0,15.34c0,3.41,1.62,6.18,5.49,4.87q2.56-.87,1.23,2.59a1,1,0,0,1-.68.59q-10.46,2.44-10.36-8.42.08-7.5,0-15A.51.51,0,0,0,299.5,90.14Z"/><path class="cls-4" d="M167,102.28A12.11,12.11,0,0,1,155,114.46h-2.3a12.12,12.12,0,0,1-12.19-12l0-4.06A12.13,12.13,0,0,1,152.5,86.17h2.3A12.12,12.12,0,0,1,167,98.22Zm-13.3,9c5.15,0,9.38-4.84,9.43-10.9s-4.08-11-9.24-11.06-9.38,4.83-9.44,10.89S148.54,111.27,153.7,111.32Z"/><path class="cls-4" d="M267.36,110.45q-1.28,1-2.49,2.07c-5.35,4.52-14.4,1.73-14.46-5.8-.06-9,10.4-9.09,16.76-9.92a.62.62,0,0,0,.54-.56c.85-9.08-9.43-7.24-13.92-4.09a.41.41,0,0,1-.55-.09l0-.07q-1.11-3.15,1.42-4.26c6.24-2.73,16.24-3,17,6a136.19,136.19,0,0,1,.28,19.69.57.57,0,0,1-.51.59h-3.13a.55.55,0,0,1-.48-.58l0-2.78Q267.78,110.12,267.36,110.45ZM255.25,104c-4.33,8.83,14.17,11,12.41-3.46a.56.56,0,0,0-.64-.5h0C263.74,100.5,256.79,100.86,255.25,104Z"/><path class="cls-3" d="M352,91a27.7,27.7,0,0,0,2.35-2.1c3.39-3.43,9.37-3.52,12.9-1.24,6.53,4.22,6.65,13.94,3.66,20.53a11,11,0,0,1-18.62,2.21c-.44-.57-.65-.5-.65.21l.11,15.46a.66.66,0,0,1-.44.67,4.5,4.5,0,0,1-3.31-.18.81.81,0,0,1-.44-.73V87.4a.53.53,0,0,1,.5-.55h0l3.15.05a.51.51,0,0,1,.49.55v0l-.07,3.3C351.64,91.1,351.76,91.16,352,91Zm7.27,20.35c4.74.34,8.93-4.31,9.36-10.38s-3.05-11.27-7.78-11.61h0c-4.73-.33-8.92,4.31-9.36,10.38s3.05,11.27,7.78,11.61Z"/><path class="cls-4" d="M379.25,90c2.87-4.49,10.52-4.43,14.71-3a.78.78,0,0,1,.51.68l.25,2.69c.07.7-.21.89-.83.57-2.92-1.49-7.36-2.36-10.15-.23-3.87,2.94-.34,6,2.81,7.25,4.63,1.86,11.43,4.61,9,11.06-2.65,7-18.68,7.06-17.47,2a1.72,1.72,0,0,0-.07-.94,1.4,1.4,0,0,1,0-.88.4.4,0,0,1,.56-.2.24.24,0,0,1,.11.06c3.16,2.07,10.54,3.83,12.75-.55C395.12,101.16,371.61,101.94,379.25,90Z"/><path class="cls-3" d="M178.5,91.18c2.78-2.78,3.72-5.62,8.79-4.84a.68.68,0,0,1,.63.56l.16,3.08a.4.4,0,0,1-.45.38h-.13c-11.92-2.73-9.74,16.55-9.36,23a.52.52,0,0,1-.44.58h0l-3.14.11a.52.52,0,0,1-.48-.54v0L174,87.62a.78.78,0,0,1,.43-.73,4.39,4.39,0,0,1,3.18-.19.65.65,0,0,1,.47.65l0,3.67C178.11,91.38,178.24,91.44,178.5,91.18Z"/><path class="cls-3" d="M284.59,91.34a2,2,0,0,0,.83-.87,6.86,6.86,0,0,1,8.1-4,.6.6,0,0,1,.54.6l-.1,2.75a.48.48,0,0,1-.55.41h-.05c-12.24-1.61-9.09,16.13-9.05,23.06a.64.64,0,0,1-.47.63,6.94,6.94,0,0,1-3.42,0,.64.64,0,0,1-.46-.63V87.39a.52.52,0,0,1,.5-.52l3.26-.12a.46.46,0,0,1,.47.45v0L284.12,91a.35.35,0,0,0,.32.35A.4.4,0,0,0,284.59,91.34Z"/><path class="cls-4" d="M321.6,108c3.17,5.49,10.62,3.3,12.61-1.88,1.62-4.22.6-13.93.62-18.75a.51.51,0,0,1,.5-.52h3.21a.51.51,0,0,1,.5.53v25.85a.73.73,0,0,1-.47.68c-5.94,2.07-2.6-3.17-3.79-3.76-.17-.09-.44,0-.65.3q-5.24,6.47-12.92,3.19c-6.89-3-5-20-4.83-26.4a.5.5,0,0,1,.52-.48h0l2.89.1a.51.51,0,0,1,.51.51C320.27,95.84,319.44,104.28,321.6,108Z"/></svg>