<svg id="Layer_1" data-name="Layer 1" xmlns="http://www.w3.org/2000/svg" viewBox="0 0 539.16 257.28"><defs><style>.cls-1,.cls-2,.cls-6,.cls-7{fill:none;}.cls-1{stroke:#01339e;}.cls-1,.cls-2{stroke-miterlimit:10;}.cls-2{stroke:#82ab2b;}.cls-3{fill:#82ab2b;}.cls-4{fill:#040504;stroke:#000;}.cls-4,.cls-6,.cls-7{stroke-width:2px;}.cls-5{fill:#01339e;}.cls-6{stroke:#c1d595;}.cls-7{stroke:#c2d498;}.cls-8{fill:#070807;}.cls-9{fill:#fff;}.cls-10{fill:#84a831;}</style></defs><path class="cls-1" d="M490.05,3.23C482.83,14,500,32.83,507.61,39.09a1.16,1.16,0,0,0,.89.28c2.11-.25,1.44-1.92.34-2.87a63.63,63.63,0,0,1-13.37-15.36C488,8.46,489.48-2,507.21,6.52a1.28,1.28,0,0,0,.93.09,1.44,1.44,0,0,0,1.11-1.39,1,1,0,0,0-.46-.77A21.74,21.74,0,0,0,494.22.69a5.55,5.55,0,0,0-4.17,2.54"/><path class="cls-1" d="M499.61,18.62q-2.31,2.65.86,2.91a1,1,0,0,0,.83-.37A60.42,60.42,0,0,1,521.11,5.57c13-6.42,17.28,1.22,11.18,12.68a1.66,1.66,0,0,0-.22.93c.42,6.61,4.75-4,5.15-5.41,2.18-8-.72-14.61-10.09-13-10,1.68-20.91,10.31-27.52,17.89"/><path class="cls-1" d="M516.81,11.6A1,1,0,0,0,517,13a94.44,94.44,0,0,1,12.46,13.68c7.63,10.32,12.2,28-10.12,17.29-2.49-1.19-3,1.17-1,2.3,6.65,3.9,19.58,7.58,20.36-3.73.73-10.69-11.32-24.18-18.88-30.93q-1.83-1.63-2.94,0"/><path class="cls-2" d="M519.8,25a6.66,6.66,0,0,0-13.32,0h0a6.66,6.66,0,0,0,6.66,6.66h0A6.66,6.66,0,0,0,519.8,25"/><path class="cls-1" d="M493.74,47.17c-6.43-2.09-2.25-12.05.32-16.49a1.15,1.15,0,0,0,.12-.91,1.49,1.49,0,0,0-1.73-1.17,1,1,0,0,0-.71.56q-3.69,6.81-4,9.58c-1.51,11.58,6.73,13.1,15.14,10,8.91-3.31,17.05-9.66,23.22-16.79.92-1.07,2-1.61,1.29-3.29a.67.67,0,0,0-.72-.4,3.56,3.56,0,0,0-2.31,1.32c-5.23,6.17-21.9,20.44-30.58,17.62"/><path class="cls-3" d="M13.21,155.78A263.07,263.07,0,0,1,153,145.09a.77.77,0,0,0,.85-.45c19.93-47.07-7.41-100.16-57.39-110.4-69.21-14.17-121.44,61.1-84,121.29a.61.61,0,0,0,.73.25"/><path class="cls-4" d="M191.43,39.81a.4.4,0,0,0-.39-.39h-.48a.39.39,0,0,0-.39.39h0V183.29a.38.38,0,0,0,.39.39H191a.39.39,0,0,0,.39-.39V39.81"/><path class="cls-2" d="M361.86,47.61a3.39,3.39,0,0,0-3.39-3.39h0a3.39,3.39,0,1,0,3.39,3.39h0"/><path class="cls-2" d="M272.59,47.9a3.39,3.39,0,1,0-6.78,0h0a3.39,3.39,0,0,0,3.39,3.39h0a3.39,3.39,0,0,0,3.39-3.39"/><path class="cls-2" d="M316,64.75,315.92,46a.61.61,0,0,0-.49-.61,7.31,7.31,0,0,0-3.76.31.7.7,0,0,0-.46.67v47.8a.63.63,0,0,0,.48.63,7.76,7.76,0,0,0,3.8,0,.65.65,0,0,0,.48-.63c-.24-9.87-3.54-32.78,14.19-30.12,4.79.72,8.13,3.53,8.47,8.44a214.61,214.61,0,0,1,.2,21.76.53.53,0,0,0,.47.59h0l3.55.12a.56.56,0,0,0,.53-.56,152.91,152.91,0,0,0,0-21.19c-.51-7.29-3.42-12-10.7-13.29q-9.75-1.77-16.22,5c-.33.34-.49.28-.49-.19"/><path class="cls-2" d="M233.73,90.63a.29.29,0,0,1-.3-.3V49a.74.74,0,0,0-.45-.69,5.27,5.27,0,0,0-4.07,0,.75.75,0,0,0-.45.7l0,45.3a.51.51,0,0,0,.51.51l30.09.07a.53.53,0,0,0,.57-.47v0l-.17-3.23a.58.58,0,0,0-.62-.48l-25.16-.06"/><path class="cls-2" d="M285.37,64q.09,10.35.08,20.68c0,8.73,8.06,12,15.37,9.14,2.22-.86,2.75-1.95,1.2-4a.89.89,0,0,0-1-.29c-9.36,3.6-10.86-1.59-10.84-9.38q0-8.08,0-16.18a.52.52,0,0,1,.5-.51l9.46-.32a.69.69,0,0,0,.64-.51,5.49,5.49,0,0,0,0-3,.67.67,0,0,0-.66-.47l-9.08-.09a.56.56,0,0,1-.58-.51l-.28-6.22a.74.74,0,0,0-.43-.67,5.77,5.77,0,0,0-3.91,0,.71.71,0,0,0-.44.69l-.13,6.24a.54.54,0,0,1-.54.51l-4.33,0a.91.91,0,0,0-.78.39,3.43,3.43,0,0,0-.33,3.16.72.72,0,0,0,.67.43l4.9.23a.57.57,0,0,1,.5.59"/><path class="cls-2" d="M422.6,64.9a.53.53,0,0,1-.26-.13.79.79,0,0,1-.12-.83q1.71-5.69-4-4.08a.67.67,0,0,0-.48.65V94.12a.55.55,0,0,0,.5.57l3.67.14a.51.51,0,0,0,.51-.51h0c.08-7.93-2.28-23.51,5-28.53,5.37-3.71,13.82-2.85,16.25,4.06,2.09,6,.85,17.72.85,24.3a.55.55,0,0,0,.48.6h3.82a.53.53,0,0,0,.48-.57v0c-.2-6.31-1.37-20.52,2.08-25.77,3.79-5.79,14.29-6.64,17.93-.68,3.19,5.24,2,19.9,1.94,26.46a.61.61,0,0,0,.48.62,6.71,6.71,0,0,0,3.76-.21.74.74,0,0,0,.48-.68q.12-10-.07-19.92c-.16-8.38-4.12-13.9-12.73-14.57-4.37-.33-9.33.71-12.51,4.06a22.2,22.2,0,0,1-2.54,2.27.48.48,0,0,1-.66-.11v0c-5.56-8.55-18-8-24.34-.92a.53.53,0,0,1-.44.22"/><path class="cls-2" d="M360.46,60.1a.4.4,0,0,0-.38-.39h-4a.38.38,0,0,0-.38.38h0l-.06,34.46a.38.38,0,0,0,.38.38h4a.37.37,0,0,0,.38-.37h0l.06-34.46"/><path class="cls-2" d="M400.61,90l.24,4.21a.69.69,0,0,0,.54.63,7.57,7.57,0,0,0,3.54,0,.67.67,0,0,0,.49-.65V60.49a.68.68,0,0,0-.49-.65A6.27,6.27,0,0,0,401,60a.73.73,0,0,0-.46.69c.1,6.86,1.14,19.25-1.86,24.72-3.73,6.82-15.88,8-19.5.13-2.38-5.12-1-19-1-25.07a.55.55,0,0,0-.49-.57l-3.9-.15a.52.52,0,0,0-.51.53h0c-.21,8.82-1.89,25,3.72,30.71,6.38,6.53,17,5.27,23.26-1.22.22-.24.35-.19.37.15"/><path class="cls-2" d="M271.65,60.52a.56.56,0,0,0-.56-.56h-3.7a.57.57,0,0,0-.56.57l.06,33.9a.55.55,0,0,0,.56.55h3.7a.56.56,0,0,0,.56-.56l-.06-33.9"/><path class="cls-1" d="M243.57,171.15l-15.72-43.21a.8.8,0,0,0-.67-.57l-4.28-.09a.46.46,0,0,0-.45.48.58.58,0,0,0,0,.18l18.22,49.28a.79.79,0,0,0,.67.56l4.59.05a.76.76,0,0,0,.68-.55l18.14-49.14a.5.5,0,0,0-.3-.64,6.38,6.38,0,0,0-4.37,0,1.06,1.06,0,0,0-.64.65l-15.57,43.06c-.12.31-.23.3-.34,0"/><path class="cls-1" d="M361,145.75l7.73-.17a.56.56,0,0,0,.6-.5l0-3a.57.57,0,0,0-.59-.53l-7.81,0a.47.47,0,0,1-.5-.45h0l0-9.18a.67.67,0,0,0-.47-.64,7.24,7.24,0,0,0-4,0,.66.66,0,0,0-.49.64l-.07,9.15a.5.5,0,0,1-.49.51l-3.55,0a.62.62,0,0,0-.61.48,7.1,7.1,0,0,0,.06,3,.63.63,0,0,0,.63.46l3.42.13a.54.54,0,0,1,.5.55q.11,8.81.11,17.59,0,14.08,13.92,13.75a.67.67,0,0,0,.64-.51,7.36,7.36,0,0,0,0-3.49.61.61,0,0,0-.62-.46c-7.13.29-8.91-4.15-9-10.59q-.07-8.17,0-16.38a.52.52,0,0,1,.52-.5"/><path class="cls-1" d="M271.74,159.5l26.69-.17a.56.56,0,0,0,.56-.5c1.24-11.74-6.34-20.36-18.24-18.51-12.38,1.93-17.68,16-13,26.82,5.08,11.83,20.43,13.92,30.29,6.32a.63.63,0,0,0,.23-.78l-1.68-2.9a.49.49,0,0,0-.68-.11l0,0c-9.61,7.44-24,3.74-24.57-9.69a.49.49,0,0,1,.46-.51h0"/><path class="cls-1" d="M494.49,152.61q-3-4.46,1-6.86c4.15-2.56,9.8-1.47,13.6,1.43a.48.48,0,0,0,.68,0l0,0,1.74-3a.63.63,0,0,0-.22-.78c-15.52-11.72-34.07,8.26-15.54,16,4.8,2,12.65,3.83,11.88,9.19-1.14,8-13.36,4.33-17.3,1.13a.71.71,0,0,0-.81-.07,4,4,0,0,0-2,3.17.91.91,0,0,0,.37.8c6.34,4.78,19.91,7,24-1.69,4.66-9.93-6.89-14.18-13.69-16.42a6.91,6.91,0,0,1-3.73-2.86"/><path class="cls-1" d="M452.74,159.75l25.54,0a1.77,1.77,0,0,0,1.77-1.77v-.1c-.68-11.34-5.74-19-18.14-17.24-13.12,1.83-18.94,18-12.21,28.87,6.39,10.31,19.53,11.18,29.15,4.32a.72.72,0,0,0,.29-.77,6.21,6.21,0,0,0-1.83-2.87.63.63,0,0,0-.78,0c-10.62,7.4-22.94,3.49-24.24-9.89a.45.45,0,0,1,.39-.49h.06"/><path class="cls-1" d="M314.75,148.78l.07-6.39a.63.63,0,0,0-.52-.6,9.58,9.58,0,0,0-3.88.08.63.63,0,0,0-.48.62v34.66a.62.62,0,0,0,.49.62,8.63,8.63,0,0,0,4,0,.65.65,0,0,0,.5-.62c.09-11-3.59-29.15,12.34-31.6,5.34-.81,9,2,9.1,7.45s.14,13.33.08,24.14a.61.61,0,0,0,.48.63,8.72,8.72,0,0,0,4,0,.65.65,0,0,0,.5-.62q.12-19,0-24.45c-.51-16.4-19.73-14.46-26.22-3.8-.28.45-.41.4-.4-.13"/><path class="cls-1" d="M407.81,170.33l0,5.95a.56.56,0,0,0,.52.59l3.59.19a.51.51,0,0,0,.51-.5v0l0-35.27a.54.54,0,0,0-.5-.56h0l-3.74.12a.52.52,0,0,0-.48.56h0c.25,7.1,1.21,19.4-2.22,25.39-3.1,5.39-14.66,10.05-18,2.82q-.93-2-1-7.58-.07-10.25,0-20.55a.62.62,0,0,0-.49-.61,10,10,0,0,0-4-.05.59.59,0,0,0-.49.59v20.91a40.93,40.93,0,0,0,.43,6c2.08,14.09,19.22,11.06,25.23,1.8.48-.74.72-.66.72.25"/><path class="cls-1" d="M429.77,149.13v-7a.63.63,0,0,0-.52-.6,9.7,9.7,0,0,0-3.95.06.64.64,0,0,0-.47.63l.05,34.72a.61.61,0,0,0,.48.61,10.2,10.2,0,0,0,4.08,0,.61.61,0,0,0,.48-.61c0-9.39-2.79-30.9,12.48-31a.7.7,0,0,0,.66-.46,5.21,5.21,0,0,0-.4-4.12.82.82,0,0,0-.75-.43c-6.8.17-8.32,3.6-11.86,8.3-.19.24-.28.21-.28-.1"/><path class="cls-5" d="M30.58,176c40.78,31.71,98.61,17.54,121.52-27.66a.53.53,0,0,0-.23-.71.76.76,0,0,0-.2-.06q-65.25-6-121,27.85a.35.35,0,0,0-.13.48.28.28,0,0,0,.09.1"/><path class="cls-2" d="M165.19,254.75c.2.92.68,1.34,1.44,1.27a.56.56,0,0,0,.46-.6q-.3-8.47-.15-17c0-.79-.33-1.14-1-1a.6.6,0,0,0-.47.62l-.06,6.16a.38.38,0,0,1-.37.37l-.11,0a7.36,7.36,0,0,1-1.44-.7c-11.05-6.8-14.89,16-.53,11.79a1.42,1.42,0,0,0,.72-.58,1.72,1.72,0,0,1,1-.71.48.48,0,0,1,.56.39v0"/><path class="cls-2" d="M110.67,239.1a1.27,1.27,0,0,0-1-1.44h0a1.28,1.28,0,0,0-1.6.8h0a1.29,1.29,0,0,0,1.06,1.44h0a1.26,1.26,0,0,0,1.59-.8h0"/><path class="cls-1" d="M248.31,254.75c-.07,1.2.39,1.71,1.37,1.54a.63.63,0,0,0,.48-.62V238.5a.81.81,0,0,0-.42-.76,1.07,1.07,0,0,0-.84,0,.76.76,0,0,0-.45.77l.2,5.95c0,.79-.25.94-.82.45-8.45-7.19-16.29,7.56-6.73,11.12q3.51,1.31,6.89-1.45c.23-.19.34-.13.32.18"/><path class="cls-1" d="M352.15,238.2a.49.49,0,0,0-.49-.49h-.76a.49.49,0,0,0-.49.49l0,17.9a.49.49,0,0,0,.49.49h.76a.49.49,0,0,0,.49-.49l0-17.9"/><path class="cls-1" d="M361.43,238.48a.8.8,0,0,0-.79-.79h-.16a.79.79,0,0,0-.79.79v17.4a.79.79,0,0,0,.79.79h.16a.79.79,0,0,0,.79-.79v-17.4"/><path class="cls-1" d="M397.47,244.38l0-5.7a1.11,1.11,0,0,0-.35-.86.77.77,0,0,0-1.1.06,1.18,1.18,0,0,0-.31.87q0,8.2,0,16.44c0,.91.29,1.68,1.38,1.24a.79.79,0,0,0,.41-.74l.07-7.11c0-2.27,1.26-3.55,3.71-3.82,6.2-.7,5.58,7,5,11a.6.6,0,0,0,.37.69,2.1,2.1,0,0,0,.79.06.61.61,0,0,0,.51-.59c.29-6.75.87-16.54-10-11.22a.33.33,0,0,1-.44-.15.28.28,0,0,1,0-.13"/><path class="cls-1" d="M221.43,238.4a.47.47,0,0,0-.46-.46h-.82a.46.46,0,0,0-.46.46v17.82a.45.45,0,0,0,.46.46H221a.46.46,0,0,0,.46-.46V238.4"/><path class="cls-2" d="M7.25,251c3.86.23,6.34.13,7.43-.32,5.07-2.08,5.81-9.64.25-11.31a21.5,21.5,0,0,0-9.44-.5.62.62,0,0,0-.53.57,110.94,110.94,0,0,0-.07,15.47C5,256.63,5.57,257,6.6,256a1.14,1.14,0,0,0,.36-.85l-.17-3.65a.44.44,0,0,1,.42-.47h0"/><path class="cls-2" d="M45.32,242.41l-.2-1.16a2.82,2.82,0,0,0-.27-.93.7.7,0,0,0-1-.14,1.33,1.33,0,0,0-.39.83l-.26,1.25a.93.93,0,0,1-.68.6c-2.74.81-2.79,1.44-.13,1.9a1.45,1.45,0,0,1,1.19,1.62,25.55,25.55,0,0,0,0,8.3,1.26,1.26,0,0,0,.48.8c1.12.84,6.76,1.64,5.81-.37a.8.8,0,0,0-.79-.36L47,255a1.5,1.5,0,0,1-1.66-1.31v-.13l0-8.19a.55.55,0,0,1,.53-.56l2.68-.08a1,1,0,0,0,.82-.34C50.16,243,46.47,243.1,46,243a.79.79,0,0,1-.66-.58"/><path class="cls-2" d="M55.75,250.25l9.41-.27a1.16,1.16,0,0,0,1.11-1.22,1.5,1.5,0,0,0,0-.2c-.92-4.55-4.79-7-9.14-5.26-8.18,3.24-2.92,17.19,7.54,11.57.92-.49,1-1,.19-1.55a.75.75,0,0,0-.83.06c-2.7,1.88-8.67,1.67-8.79-2.62a.52.52,0,0,1,.53-.51"/><path class="cls-2" d="M110.21,243.29a.49.49,0,0,0-.49-.5h-.56a.49.49,0,0,0-.49.49h0l-.07,12.42a.49.49,0,0,0,.49.49h.56a.48.48,0,0,0,.49-.48h0l.07-12.42"/><path class="cls-2" d="M36.59,249.64a6.81,6.81,0,1,0-6.81,6.81,6.81,6.81,0,0,0,6.81-6.81"/><path class="cls-2" d="M92.74,247.53c1.49-3.73,5.71-4,8.62-1.61a.63.63,0,0,0,.81.07c.7-.58.13-1.51-.53-1.9-11.06-6.58-16,12.15-4,12,1.62,0,7-2.72,4.21-3.17a1.13,1.13,0,0,0-.86.31,5.14,5.14,0,0,1-8.29-5.72"/><path class="cls-2" d="M118.6,245.71c2.57-1.51,7.8-2,7.71,2.37a.54.54,0,0,1-.52.52l-6.22.59q-2.85.27-2.64,3.25c.34,4.82,4.93,4.57,8.54,3.33a1.17,1.17,0,0,1,.89.08,3.06,3.06,0,0,0,1.32.32.49.49,0,0,0,.48-.5v0c-.11-2.3.37-5,.14-7q-1-8.56-10.1-4.64c-1,.43-1.13,1-.41,1.64a.67.67,0,0,0,.81,0"/><path class="cls-2" d="M186.47,249.47a6.73,6.73,0,0,0-6.73-6.73h0a6.73,6.73,0,0,0-6.73,6.73h0a6.73,6.73,0,0,0,6.73,6.73h0a6.73,6.73,0,0,0,6.73-6.73h0"/><path class="cls-1" d="M202,250.82a.46.46,0,0,1,.26-.6.57.57,0,0,1,.18,0h9.94a.88.88,0,0,0,.88-.89v-.11c-1.07-8-11.67-8.24-12.79-.62-.9,6.15,4.8,9.21,10.3,7,.53-.22,2.09-1.59,1-1.89a1.38,1.38,0,0,0-1,.18q-6.39,3.41-8.78-3"/><path class="cls-1" d="M344.48,249.8a6.82,6.82,0,1,0-6.82,6.82h0a6.82,6.82,0,0,0,6.82-6.82h0"/><path class="cls-1" d="M380.88,249.81a6.79,6.79,0,0,0-6.79-6.79h0a6.79,6.79,0,1,0,6.79,6.79h0"/><path class="cls-1" d="M425.43,255.49q.29,1.69,1.41.81a1,1,0,0,0,.36-.83l0-11.75a.66.66,0,0,0-.48-.66c-1-.26-1.43.37-1.24,1.88a26.59,26.59,0,0,1-.56,7.78,1.26,1.26,0,0,1-.48.79c-4,3.05-7.83,1.39-7.76-3.63,0-1,.92-7.38-1.15-6.7a.76.76,0,0,0-.49.71c-.35,5.29-1.08,13.26,5.89,12.65,1.62-.15,2.49-.79,4-1.36a.38.38,0,0,1,.5.23l0,.08"/><path class="cls-1" d="M471.62,248.86c-2.81-.05-10-.36-8.64,4.81,1,3.67,5.9,3.29,8.48,1.78a.47.47,0,0,1,.64.18h0c.41.73.92,1,1.53.77a.69.69,0,0,0,.4-.72c-.25-4,.78-9.12-1.59-11.3-1.86-1.7-9.81-1.65-9,1.2a.46.46,0,0,0,.6.27l.06,0c3.32-1.55,7.95-2.43,8,2.53a.49.49,0,0,1-.49.49h0"/><path class="cls-1" d="M512.83,249.81a6.77,6.77,0,0,0-6.77-6.77h0a6.77,6.77,0,0,0-6.77,6.77h0a6.77,6.77,0,0,0,6.77,6.77h0a6.77,6.77,0,0,0,6.77-6.77h0"/><path class="cls-2" d="M80.63,244.75a2.39,2.39,0,0,1,2.11,2.12,35.15,35.15,0,0,1,.4,8.3c-.06,1,.51,1.82,1.49,1.1a1,1,0,0,0,.35-.85c-.39-5.66.45-16.49-9.7-11.1a.59.59,0,0,1-.73-.16,1.59,1.59,0,0,0-1.61-.65.66.66,0,0,0-.48.67v11.2a1,1,0,0,0,.36.84,1.27,1.27,0,0,0,1.22.19.65.65,0,0,0,.37-.72,29.47,29.47,0,0,1,.16-8.54,1.46,1.46,0,0,1,.44-.85,6.23,6.23,0,0,1,5.63-1.55"/><path class="cls-2" d="M137.39,244.28c-.76-1-1.46-1.15-2.09-.55a1.18,1.18,0,0,0-.29.89l.13,10.84a1,1,0,0,0,.36.81c2.57,1.77,1.68-6.84,1.69-7.79a3.14,3.14,0,0,1,2.49-3.27c7.62-2.2,6,6.54,6,10.65a.77.77,0,0,0,.44.75,1.11,1.11,0,0,0,.82,0,.82.82,0,0,0,.44-.75q.12-3.62-.05-7.38c-.24-5.25-5.1-6.68-9.26-4.07a.53.53,0,0,1-.7-.14"/><path class="cls-1" d="M258,250.49l9.5,0a.93.93,0,0,0,.94-.92v-.08c-.51-5.56-7.41-8.85-11.06-4.32-5.33,6.63,1.95,14.38,9.27,10.2.52-.3,1.2-1.22.57-1.67a.77.77,0,0,0-.86.08c-2.88,2-8.64,1.66-8.85-2.75a.48.48,0,0,1,.46-.5h0"/><path class="cls-1" d="M275.12,249.5c1.8.93,7.11,1.1,7,3.8a1,1,0,0,1-.46.78c-2.57,1.63-5.11.68-7.77-.07a.54.54,0,0,0-.69.31c-.72,2.33,6.26,2.16,7.53,2a3.42,3.42,0,0,0,3-2.61c1-3.37-3.22-4.4-6.08-4.82-5.74-.84-.54-6.59,4.67-3.42a.64.64,0,0,0,.8-.05c.47-.51.31-.95-.47-1.33q-4.68-2.25-8,.6a2.93,2.93,0,0,0,.45,4.84"/><path class="cls-1" d="M297.46,255.61a2.54,2.54,0,0,0,1.09.79.38.38,0,0,0,.49-.26l0-.11a43.72,43.72,0,0,0-.28-9.88,1.51,1.51,0,0,0-.41-.85q-3.63-3.68-8.94-1-.94.47-.87,1.17a.41.41,0,0,0,.5.32l.12,0c3.26-1.29,7.8-2.59,8.48,2.48a.69.69,0,0,1-.6.76h-.14c-14-1.42-9.08,11.36-.17,6.45a.56.56,0,0,1,.7.17"/><path class="cls-1" d="M309.21,244.38c-.12-.84-.55-1.18-1.29-1a.61.61,0,0,0-.47.64l0,11.71a1.06,1.06,0,0,0,.36.85.76.76,0,0,0,1.22-.17,2.14,2.14,0,0,0,.22-.94l.4-8.21a1.13,1.13,0,0,1,.48-.8,9.71,9.71,0,0,1,3.58-1.66.77.77,0,0,0,.62-.58c.37-2.43-3.93.27-4.59.52a.37.37,0,0,1-.48-.25.19.19,0,0,1,0-.08"/><path class="cls-1" d="M321.66,244.39c-.22-.85-.71-1.2-1.47-1.06a.61.61,0,0,0-.48.63v11.93a.77.77,0,0,0,.44.74c1,.39,1.35-.42,1.31-1.3a65.78,65.78,0,0,1,.14-7.68,1.29,1.29,0,0,1,.38-.85,7.63,7.63,0,0,1,3.71-2,1,1,0,0,0,.7-.56c.92-2.6-3.8.21-4.19.41a.36.36,0,0,1-.5-.16.32.32,0,0,1,0-.09"/><path class="cls-1" d="M436.27,244.39a1.08,1.08,0,0,0-1.11-1.16.49.49,0,0,0-.52.47v0l0,12.21a.75.75,0,0,0,.45.75.87.87,0,0,0,.65-.05.84.84,0,0,0,.4-.78c0-2.38-.34-7.65,1.22-9.52,2.36-2.84,7-1.8,7.18,2.41.1,2.37.14,4.74.14,7.12a.73.73,0,0,0,.42.75,1.21,1.21,0,0,0,.84,0,.8.8,0,0,0,.45-.75c.07-4-1.39-10.53,4.51-11.17,2.4-.27,3.62.7,3.67,2.89l.17,8a1.17,1.17,0,0,0,.28.88.89.89,0,0,0,.94.14.77.77,0,0,0,.43-.75c0-3.21.73-8.5-1.14-10.88-2.28-2.89-6.3-2-9,.25a.55.55,0,0,1-.73,0q-4-3.69-8.86-.63a.25.25,0,0,1-.35-.08.2.2,0,0,1,0-.13"/><path class="cls-1" d="M482.47,244.39c-.1-1-.54-1.36-1.32-.94a.83.83,0,0,0-.4.77,78.29,78.29,0,0,1-.1,10.21c-.29,2.05.24,2.72,1.58,2a.87.87,0,0,0,.43-.76l0-6.76a3.61,3.61,0,0,1,2.52-3.64c7.6-2.93,6.23,6.71,6.2,10.42a1,1,0,0,0,.35.84,1,1,0,0,0,.92.12.83.83,0,0,0,.46-.75c.14-3.2.67-8.68-1.52-11.07-2.9-3.17-5.45-1.07-8.66-.07a.4.4,0,0,1-.49-.28.22.22,0,0,1,0-.08"/><path class="cls-6" d="M21.12,104.21a7.61,7.61,0,0,0,2.48,1.36l9.86,3.3c5.46,1.83,5.16,7-.87,6.91a21.27,21.27,0,0,1-14.14-5.92.37.37,0,0,0-.52,0,.35.35,0,0,0-.05.08l-3.53,7.69a.61.61,0,0,0,.2.76c8.52,6.22,30.69,10.7,33.51-4.39,2.13-11.35-10.27-13.32-17.93-16.14-3.79-1.4-3.93-5.9.79-5.87A21.57,21.57,0,0,1,43.7,96.37a.39.39,0,0,0,.55-.09.43.43,0,0,0,0-.07l3.33-7.36a1.23,1.23,0,0,0-.51-1.58c-8.41-4.56-25.62-7-30,4.74q-2.57,6.81,4.05,12.2"/><path class="cls-6" d="M85.62,120.59a.71.71,0,0,1-.29-1,1,1,0,0,1,.16-.19A20,20,0,0,0,92.37,102C90.19,77.6,52.62,78,50,101c-1.78,15.76,11.5,25.9,26.48,22.93a.92.92,0,0,1,.82.27q7.34,7.91,16.87,2.24a.74.74,0,0,0,.36-.76A9.53,9.53,0,0,0,92,121.2a1,1,0,0,0-.86-.29c-2.49.43-4.32.33-5.5-.32"/><path class="cls-6" d="M105.61,99.73l9.52,19.56a.79.79,0,0,0,.73.45l5.67-.15a.85.85,0,0,0,.71-.5L131.53,100c.32-.66.49-.62.53.12a198.35,198.35,0,0,1-.33,23.08.47.47,0,0,0,.45.49h0l8.88.07a.47.47,0,0,0,.47-.47v0q-.77-19.3-.08-38.57a.48.48,0,0,0-.45-.51h0l-10.63.13a.79.79,0,0,0-.71.47l-10.92,21.77q-.23.45-.45,0L107.34,84.73a.84.84,0,0,0-.72-.46l-10.32,0a.49.49,0,0,0-.49.5h0q.22,16.1.18,32.2a33,33,0,0,1-.61,6.26.6.6,0,0,0,.51.69H96l8.79-.14a.48.48,0,0,0,.49-.47l0-23.49c0-.52.11-.54.35-.07"/><path class="cls-7" d="M68.23,113.37a.44.44,0,0,1-.18-.57s0,0,0,0L72.82,108a.68.68,0,0,1,.83-.08,12.83,12.83,0,0,1,4.59,4,.82.82,0,0,0,1.15.21.85.85,0,0,0,.24-.26c3.81-6.5,2.63-18.87-6.53-20.08-15.32-2-17.39,23-2.17,24.73,1.35.15,1.53-.12.53-.82l-3.23-2.28"/><path class="cls-1" d="M293.89,154.67c0-14.55-18.74-13.09-22.24-.46a.81.81,0,0,0,.57,1,.78.78,0,0,0,.22,0l20.95-.07a.5.5,0,0,0,.5-.5"/><path class="cls-1" d="M474.86,154.91c-.3-14.59-19.86-13.07-22.34,0a.4.4,0,0,0,.33.48h21.52a.49.49,0,0,0,.49-.49h0"/><path class="cls-2" d="M165.35,249.53a5.12,5.12,0,0,0-5.12-5.12h0a5.12,5.12,0,1,0,5.12,5.12h0"/><path class="cls-1" d="M248.58,249.73a5.19,5.19,0,0,0-5.19-5.19h0a5.19,5.19,0,0,0-5.19,5.19h0a5.19,5.19,0,0,0,5.19,5.19h0a5.19,5.19,0,0,0,5.19-5.19h0"/><path class="cls-2" d="M14.75,241.13a16.58,16.58,0,0,0-7.39-.56.65.65,0,0,0-.56.58,24,24,0,0,0,.25,7.51.61.61,0,0,0,.59.51c4.11.11,10.39.65,9.1-5.83a2.73,2.73,0,0,0-2-2.21"/><path class="cls-2" d="M64.4,248.15c-.12-4.64-6.34-4.69-8.75-1.75-1.26,1.53-.9,2.29,1.06,2.28l7.18,0a.51.51,0,0,0,.51-.51"/><path class="cls-2" d="M34.9,249.61a5.07,5.07,0,0,0-5.06-5.06h0a5.06,5.06,0,0,0-5.06,5.06h0a5.06,5.06,0,0,0,10.12,0"/><path class="cls-2" d="M126.39,252c-.19-1.31-2.08-2.11-4.22-1.79h0c-2.14.31-3.72,1.63-3.53,2.93h0c.19,1.31,2.08,2.11,4.23,1.8h0c2.14-.32,3.72-1.64,3.52-2.94h0"/><path class="cls-2" d="M185,249.53a5.2,5.2,0,1,0-5.2,5.2h0a5.2,5.2,0,0,0,5.2-5.2"/><path class="cls-1" d="M211.56,248.24c-1-5-7.91-5.31-9.36,0a.43.43,0,0,0,.27.53h8.68a.43.43,0,0,0,.42-.44s0-.07,0-.1"/><path class="cls-1" d="M342.74,249.8a5.09,5.09,0,0,0-5.08-5.08h0a5.08,5.08,0,1,0,5.08,5.08h0"/><path class="cls-1" d="M379.17,249.83a5.07,5.07,0,0,0-5.07-5.07h0a5.07,5.07,0,0,0-5.07,5.07h0a5.07,5.07,0,1,0,10.14,0"/><path class="cls-1" d="M472.32,251.84c-.23-1.34-2.19-2.12-4.36-1.74s-3.76,1.76-3.53,3.1,2.19,2.12,4.37,1.75,3.75-1.77,3.52-3.11"/><path class="cls-1" d="M511.16,249.85a5.1,5.1,0,1,0-5.1,5.1,5.1,5.1,0,0,0,5.1-5.1"/><path class="cls-1" d="M258.07,249l8.26-.18a.42.42,0,0,0,.41-.43s0-.06,0-.09a4.78,4.78,0,0,0-9.31-.18.67.67,0,0,0,.44.85.71.71,0,0,0,.21,0"/><path class="cls-1" d="M297.73,251.81c-.24-1.38-2.25-2.19-4.5-1.8s-3.86,1.82-3.62,3.2h0c.24,1.38,2.25,2.19,4.49,1.8s3.87-1.82,3.63-3.2h0"/><path class="cls-5" d="M490.05,3.23A5.55,5.55,0,0,1,494.22.69a21.74,21.74,0,0,1,14.57,3.76,1,1,0,0,1,.46.77,1.44,1.44,0,0,1-1.11,1.39,1.28,1.28,0,0,1-.93-.09C489.48-2,488,8.46,495.47,21.14A63.63,63.63,0,0,0,508.84,36.5c1.1,1,1.77,2.62-.34,2.87a1.16,1.16,0,0,1-.89-.28C500,32.83,482.83,14,490.05,3.23Z"/><path class="cls-5" d="M499.61,18.62C506.22,11,517.11,2.41,527.13.73c9.37-1.57,12.27,5.08,10.09,13-.4,1.45-4.73,12-5.15,5.41a1.66,1.66,0,0,1,.22-.93c6.1-11.46,1.78-19.1-11.18-12.68A60.42,60.42,0,0,0,501.3,21.16a1,1,0,0,1-.83.37Q497.31,21.28,499.61,18.62Z"/><path class="cls-5" d="M516.81,11.6q1.11-1.63,2.94,0c7.56,6.75,19.61,20.24,18.88,30.93-.78,11.31-13.71,7.63-20.36,3.73-1.93-1.13-1.45-3.49,1-2.3,22.32,10.71,17.75-7,10.12-17.29A94.44,94.44,0,0,0,517,13,1,1,0,0,1,516.81,11.6Z"/><circle class="cls-3" cx="513.14" cy="25.03" r="6.66"/><path class="cls-5" d="M494.06,30.68c-2.57,4.44-6.75,14.4-.32,16.49,8.68,2.82,25.35-11.45,30.58-17.62a3.56,3.56,0,0,1,2.31-1.32.67.67,0,0,1,.72.4c.73,1.68-.37,2.22-1.29,3.29-6.17,7.13-14.31,13.48-23.22,16.79-8.41,3.13-16.65,1.61-15.14-10q.36-2.77,4-9.58a1,1,0,0,1,.71-.56,1.49,1.49,0,0,1,1.73,1.17A1.15,1.15,0,0,1,494.06,30.68Z"/><path class="cls-3" d="M153,145.09A263.07,263.07,0,0,0,13.21,155.78a.61.61,0,0,1-.73-.25C-24.94,95.34,27.29,20.07,96.5,34.24c50,10.24,77.32,63.33,57.39,110.4A.77.77,0,0,1,153,145.09ZM21.12,104.21a7.61,7.61,0,0,0,2.48,1.36l9.86,3.3c5.46,1.83,5.16,7-.87,6.91a21.27,21.27,0,0,1-14.14-5.92.37.37,0,0,0-.52,0,.35.35,0,0,0-.05.08l-3.53,7.69a.61.61,0,0,0,.2.76c8.52,6.22,30.69,10.7,33.51-4.39,2.13-11.35-10.27-13.32-17.93-16.14-3.79-1.4-3.93-5.9.79-5.87A21.57,21.57,0,0,1,43.7,96.37a.39.39,0,0,0,.55-.09.43.43,0,0,0,0-.07l3.33-7.36a1.23,1.23,0,0,0-.51-1.58c-8.41-4.56-25.62-7-30,4.74Q14.51,98.82,21.12,104.21Zm64.5,16.38a.71.71,0,0,1-.29-1,1,1,0,0,1,.16-.19A20,20,0,0,0,92.37,102C90.19,77.6,52.62,78,50,101c-1.78,15.76,11.5,25.9,26.48,22.93a.92.92,0,0,1,.82.27q7.34,7.91,16.87,2.24a.74.74,0,0,0,.36-.76A9.53,9.53,0,0,0,92,121.2a1,1,0,0,0-.86-.29C88.63,121.34,86.8,121.24,85.62,120.59Zm20-20.86,9.52,19.56a.79.79,0,0,0,.73.45l5.67-.15a.85.85,0,0,0,.71-.5L131.53,100c.32-.66.49-.62.53.12a198.35,198.35,0,0,1-.33,23.08.47.47,0,0,0,.45.49h0l8.88.07a.47.47,0,0,0,.47-.47v0q-.77-19.3-.08-38.57a.48.48,0,0,0-.45-.51h0l-10.63.13a.79.79,0,0,0-.71.47l-10.92,21.77q-.23.45-.45,0L107.34,84.73a.84.84,0,0,0-.72-.46l-10.32,0a.49.49,0,0,0-.49.5h0q.22,16.1.18,32.2a33,33,0,0,1-.61,6.26.6.6,0,0,0,.51.69H96l8.79-.14a.48.48,0,0,0,.49-.47l0-23.49C105.26,99.28,105.37,99.26,105.61,99.73Z"/><rect class="cls-8" x="190.17" y="39.42" width="1.26" height="144.26" rx="0.39"/><circle class="cls-3" cx="358.47" cy="47.61" r="3.39"/><circle class="cls-3" cx="269.2" cy="47.9" r="3.39"/><path class="cls-3" d="M316,64.75c0,.47.16.53.49.19q6.48-6.82,16.22-5c7.28,1.32,10.19,6,10.7,13.29a152.91,152.91,0,0,1,0,21.19.56.56,0,0,1-.53.56l-3.55-.12a.54.54,0,0,1-.48-.59h0a214.61,214.61,0,0,0-.2-21.76c-.34-4.91-3.68-7.72-8.47-8.44C312.42,61.36,315.72,84.27,316,94.14a.65.65,0,0,1-.48.63,7.76,7.76,0,0,1-3.8,0,.63.63,0,0,1-.48-.63V46.35a.7.7,0,0,1,.46-.67,7.31,7.31,0,0,1,3.76-.31.61.61,0,0,1,.49.61Z"/><path class="cls-3" d="M233.73,90.63l25.16.06a.58.58,0,0,1,.62.48l.17,3.23a.53.53,0,0,1-.54.5h0L229,94.83a.51.51,0,0,1-.51-.51l0-45.3a.75.75,0,0,1,.45-.7,5.27,5.27,0,0,1,4.07,0,.74.74,0,0,1,.45.69V90.33A.29.29,0,0,0,233.73,90.63Z"/><path class="cls-3" d="M284.87,63.41l-4.9-.23a.72.72,0,0,1-.67-.43,3.43,3.43,0,0,1,.33-3.16.91.91,0,0,1,.78-.39l4.33,0a.54.54,0,0,0,.54-.51l.13-6.24a.71.71,0,0,1,.44-.69,5.77,5.77,0,0,1,3.91,0,.74.74,0,0,1,.43.67l.28,6.22a.56.56,0,0,0,.58.51l9.08.09a.67.67,0,0,1,.66.47,5.49,5.49,0,0,1,0,3,.69.69,0,0,1-.64.51l-9.46.32a.52.52,0,0,0-.5.51q0,8.1,0,16.18c0,7.79,1.48,13,10.84,9.38a.89.89,0,0,1,1,.29c1.55,2,1,3.12-1.2,4-7.31,2.82-15.38-.41-15.37-9.14q0-10.34-.08-20.68A.57.57,0,0,0,284.87,63.41Z"/><path class="cls-3" d="M423,64.68c6.33-7.05,18.78-7.63,24.34.92a.48.48,0,0,0,.65.15l0,0a22.2,22.2,0,0,0,2.54-2.27c3.18-3.35,8.14-4.39,12.51-4.06,8.61.67,12.57,6.19,12.73,14.57q.19,9.93.07,19.92a.74.74,0,0,1-.48.68,6.71,6.71,0,0,1-3.76.21.61.61,0,0,1-.48-.62c.07-6.56,1.25-21.22-1.94-26.46-3.64-6-14.14-5.11-17.93.68-3.45,5.25-2.28,19.46-2.08,25.77a.55.55,0,0,1-.46.6h-3.84a.55.55,0,0,1-.48-.6c0-6.58,1.24-18.34-.85-24.3-2.43-6.91-10.88-7.77-16.25-4.06-7.25,5-4.89,20.6-5,28.53a.51.51,0,0,1-.5.52h0l-3.67-.14a.55.55,0,0,1-.5-.57V60.51a.67.67,0,0,1,.48-.65q5.73-1.61,4,4.08a.79.79,0,0,0,.12.83.44.44,0,0,0,.7-.09Z"/><rect class="cls-3" x="340.44" y="74.94" width="35.22" height="4.76" rx="0.38" transform="translate(280.1 435.23) rotate(-89.9)"/><path class="cls-3" d="M400.61,90c0-.34-.15-.39-.37-.15C394,96.31,383.36,97.57,377,91c-5.61-5.75-3.93-21.89-3.72-30.71a.52.52,0,0,1,.5-.54h0l3.9.15a.55.55,0,0,1,.49.57c0,6.06-1.34,19.95,1,25.07,3.62,7.82,15.77,6.69,19.5-.13,3-5.47,2-17.86,1.86-24.72A.73.73,0,0,1,401,60a6.27,6.27,0,0,1,3.91-.2.68.68,0,0,1,.49.65V94.13a.67.67,0,0,1-.49.65,7.57,7.57,0,0,1-3.54,0,.69.69,0,0,1-.54-.63Z"/><rect class="cls-3" x="266.86" y="59.96" width="4.82" height="35.02" rx="0.56" transform="translate(-0.13 0.47) rotate(-0.1)"/><path class="cls-9" d="M21.12,104.21Q14.51,98.83,17.07,92c4.42-11.74,21.63-9.3,30-4.74a1.23,1.23,0,0,1,.51,1.58l-3.33,7.36a.41.41,0,0,1-.53.2l-.06,0A21.57,21.57,0,0,0,30.92,92c-4.72,0-4.58,4.47-.79,5.87,7.66,2.82,20.06,4.79,17.93,16.14-2.82,15.09-25,10.61-33.51,4.39a.61.61,0,0,1-.2-.76L17.88,110a.35.35,0,0,1,.48-.16l.09,0a21.27,21.27,0,0,0,14.14,5.92c6,.14,6.33-5.08.87-6.91l-9.86-3.3A7.61,7.61,0,0,1,21.12,104.21Z"/><path class="cls-9" d="M85.62,120.59c1.18.65,3,.75,5.5.32a1,1,0,0,1,.86.29,9.53,9.53,0,0,1,2.56,4.47.74.74,0,0,1-.36.76q-9.54,5.67-16.87-2.24a.92.92,0,0,0-.82-.27c-15,3-28.26-7.17-26.48-22.93,2.61-23,40.18-23.39,42.36,1a20,20,0,0,1-6.88,17.5.7.7,0,0,0-.06,1A.58.58,0,0,0,85.62,120.59Zm-17.39-7.22a.44.44,0,0,1-.18-.57s0,0,0,0L72.82,108a.68.68,0,0,1,.83-.08,12.83,12.83,0,0,1,4.59,4,.82.82,0,0,0,1.15.21.85.85,0,0,0,.24-.26c3.81-6.5,2.63-18.87-6.53-20.08-15.32-2-17.39,23-2.17,24.73,1.35.15,1.53-.12.53-.82Z"/><path class="cls-9" d="M105.61,99.73c-.24-.47-.35-.45-.35.07l0,23.49a.48.48,0,0,1-.49.47L96,123.9a.62.62,0,0,1-.64-.59.45.45,0,0,1,0-.11,33,33,0,0,0,.61-6.26q0-16.09-.18-32.2a.5.5,0,0,1,.48-.51h0l10.32,0a.84.84,0,0,1,.72.46l10.94,21.83q.23.45.45,0l10.92-21.77a.79.79,0,0,1,.71-.47L141,84.19a.49.49,0,0,1,.48.48v0q-.69,19.27.08,38.57a.47.47,0,0,1-.45.49h0l-8.88-.07a.46.46,0,0,1-.47-.47v0a198.35,198.35,0,0,0,.33-23.08c0-.74-.21-.78-.53-.12l-9.29,19.09a.85.85,0,0,1-.71.5l-5.67.15a.79.79,0,0,1-.73-.45Z"/><path class="cls-10" d="M68.23,113.37l3.23,2.28c1,.7.82,1-.53.82-15.22-1.73-13.15-26.75,2.17-24.73,9.16,1.21,10.34,13.58,6.53,20.08a.83.83,0,0,1-1.13.29.85.85,0,0,1-.26-.24,12.83,12.83,0,0,0-4.59-4,.68.68,0,0,0-.83.08l-4.73,4.79a.41.41,0,0,0,.08.57Z"/><path class="cls-5" d="M243.91,171.16l15.57-43.06a1.06,1.06,0,0,1,.64-.65,6.38,6.38,0,0,1,4.37,0,.5.5,0,0,1,.3.64l-18.14,49.14a.76.76,0,0,1-.68.55l-4.59-.05a.79.79,0,0,1-.67-.56l-18.22-49.28a.49.49,0,0,1,.24-.63.47.47,0,0,1,.17,0l4.28.09a.8.8,0,0,1,.67.57l15.72,43.21C243.68,171.46,243.79,171.47,243.91,171.16Z"/><path class="cls-5" d="M360.48,146.25q-.12,8.2,0,16.38c.06,6.44,1.84,10.88,9,10.59a.61.61,0,0,1,.62.46,7.36,7.36,0,0,1,0,3.49.67.67,0,0,1-.64.51q-13.92.34-13.92-13.75,0-8.79-.11-17.59a.54.54,0,0,0-.5-.55l-3.42-.13a.63.63,0,0,1-.63-.46,7.1,7.1,0,0,1-.06-3,.62.62,0,0,1,.61-.48l3.55,0a.5.5,0,0,0,.49-.51l.07-9.15a.66.66,0,0,1,.49-.64,7.24,7.24,0,0,1,4,0,.67.67,0,0,1,.47.64l0,9.18a.47.47,0,0,0,.5.45h0l7.81,0a.57.57,0,0,1,.59.53l0,3a.56.56,0,0,1-.6.5l-7.73.17A.52.52,0,0,0,360.48,146.25Z"/><path class="cls-5" d="M271.26,160c.54,13.43,15,17.13,24.57,9.69a.5.5,0,0,1,.69,0l0,0,1.68,2.9a.63.63,0,0,1-.23.78c-9.86,7.6-25.21,5.51-30.29-6.32-4.64-10.78.66-24.89,13-26.82,11.9-1.85,19.48,6.77,18.24,18.51a.56.56,0,0,1-.56.5l-26.69.17a.49.49,0,0,0-.48.49Zm22.63-5.34c0-14.55-18.74-13.09-22.24-.46a.81.81,0,0,0,.57,1,.78.78,0,0,0,.22,0l20.95-.07A.5.5,0,0,0,293.89,154.67Z"/><path class="cls-5" d="M494.49,152.61a6.91,6.91,0,0,0,3.73,2.86c6.8,2.24,18.35,6.49,13.69,16.42-4.08,8.68-17.65,6.47-24,1.69a.91.91,0,0,1-.37-.8,4,4,0,0,1,2-3.17.71.71,0,0,1,.81.07c3.94,3.2,16.16,6.91,17.3-1.13.77-5.36-7.08-7.19-11.88-9.19-18.53-7.73,0-27.71,15.54-16a.63.63,0,0,1,.22.78l-1.74,3a.48.48,0,0,1-.67.11l-.05,0c-3.8-2.9-9.45-4-13.6-1.43Q491.54,148.15,494.49,152.61Z"/><path class="cls-5" d="M452.29,160.24c1.3,13.38,13.62,17.29,24.24,9.89a.63.63,0,0,1,.78,0,6.21,6.21,0,0,1,1.83,2.87.72.72,0,0,1-.29.77c-9.62,6.86-22.76,6-29.15-4.32-6.73-10.85-.91-27,12.21-28.87,12.4-1.73,17.46,5.9,18.14,17.24a1.78,1.78,0,0,1-1.67,1.87h-.1l-25.54,0a.46.46,0,0,0-.46.44A.09.09,0,0,0,452.29,160.24Zm22.57-5.33c-.3-14.59-19.86-13.07-22.34,0a.4.4,0,0,0,.33.48h21.52a.49.49,0,0,0,.49-.49Z"/><path class="cls-5" d="M314.75,148.78c0,.53.12.58.4.13,6.49-10.66,25.71-12.6,26.22,3.8q.17,5.41,0,24.45a.65.65,0,0,1-.5.62,8.72,8.72,0,0,1-4,0,.61.61,0,0,1-.48-.63q.09-16.22-.08-24.14c-.12-5.41-3.76-8.26-9.1-7.45-15.93,2.45-12.25,20.59-12.34,31.6a.65.65,0,0,1-.5.62,8.63,8.63,0,0,1-4,0,.62.62,0,0,1-.49-.62V142.49a.63.63,0,0,1,.48-.62,9.58,9.58,0,0,1,3.88-.08.63.63,0,0,1,.52.6Z"/><path class="cls-5" d="M407.81,170.33c0-.91-.24-1-.72-.25-6,9.26-23.15,12.29-25.23-1.8a40.93,40.93,0,0,1-.43-6V141.4a.59.59,0,0,1,.49-.59,10,10,0,0,1,4,.05.62.62,0,0,1,.49.61q0,10.31,0,20.55,0,5.58,1,7.58c3.32,7.23,14.88,2.57,18-2.82,3.43-6,2.47-18.29,2.22-25.39a.52.52,0,0,1,.47-.57h0l3.74-.12a.54.54,0,0,1,.51.55h0l0,35.27a.51.51,0,0,1-.49.53h0l-3.59-.19a.56.56,0,0,1-.52-.59Z"/><path class="cls-5" d="M430.05,149.23c3.54-4.7,5.06-8.13,11.86-8.3a.82.82,0,0,1,.75.43,5.21,5.21,0,0,1,.4,4.12.7.7,0,0,1-.66.46c-15.27.08-12.49,21.59-12.48,31a.61.61,0,0,1-.48.61,10.2,10.2,0,0,1-4.08,0,.61.61,0,0,1-.48-.61l-.05-34.72a.64.64,0,0,1,.47-.63,9.7,9.7,0,0,1,3.95-.06.63.63,0,0,1,.52.6v7C429.77,149.44,429.86,149.47,430.05,149.23Z"/><path class="cls-5" d="M30.58,176a.35.35,0,0,1-.07-.49.31.31,0,0,1,.11-.09q55.8-33.9,121-27.85a.52.52,0,0,1,.48.57.46.46,0,0,1-.05.2C129.19,193.57,71.36,207.74,30.58,176Z"/><path class="cls-3" d="M164.62,254.33a1.72,1.72,0,0,0-1,.71,1.42,1.42,0,0,1-.72.58c-14.36,4.24-10.52-18.59.53-11.79a7.36,7.36,0,0,0,1.44.7.37.37,0,0,0,.46-.23.5.5,0,0,0,0-.12l.06-6.16a.6.6,0,0,1,.47-.62c.69-.1,1,.25,1,1q-.15,8.51.15,17a.56.56,0,0,1-.46.6c-.76.07-1.24-.35-1.44-1.27a.5.5,0,0,0-.55-.42Zm.73-4.8a5.12,5.12,0,0,0-5.12-5.12h0a5.12,5.12,0,1,0,5.12,5.12Z"/><ellipse class="cls-3" cx="109.35" cy="238.78" rx="1.15" ry="1.36" transform="translate(-148.45 288.91) rotate(-76.4)"/><path class="cls-5" d="M248,254.57q-3.37,2.76-6.89,1.45c-9.56-3.56-1.72-18.31,6.73-11.12.57.49.84.34.82-.45l-.2-5.95a.76.76,0,0,1,.45-.77,1.07,1.07,0,0,1,.84,0,.81.81,0,0,1,.42.76v17.17a.63.63,0,0,1-.48.62c-1,.17-1.44-.34-1.37-1.54C248.33,254.44,248.22,254.38,248,254.57Zm.59-4.84a5.19,5.19,0,0,0-5.19-5.19h0a5.19,5.19,0,0,0-5.19,5.19h0a5.19,5.19,0,0,0,5.19,5.19h0a5.19,5.19,0,0,0,5.19-5.19Z"/><rect class="cls-5" x="350.43" y="237.71" width="1.74" height="18.88" rx="0.49" transform="translate(-0.43 0.61) rotate(-0.1)"/><rect class="cls-5" x="359.69" y="237.69" width="1.74" height="18.98" rx="0.79"/><path class="cls-5" d="M397.94,244.66c10.83-5.32,10.25,4.47,10,11.22a.61.61,0,0,1-.51.59,2.1,2.1,0,0,1-.79-.06.6.6,0,0,1-.37-.69c.59-3.94,1.21-11.66-5-11-2.45.27-3.69,1.55-3.71,3.82l-.07,7.11a.79.79,0,0,1-.41.74c-1.09.44-1.38-.33-1.38-1.24q0-8.24,0-16.44a1.18,1.18,0,0,1,.31-.87.77.77,0,0,1,1.1-.06,1.11,1.11,0,0,1,.35.86l0,5.7a.31.31,0,0,0,.33.31A.35.35,0,0,0,397.94,244.66Z"/><rect class="cls-5" x="219.69" y="237.94" width="1.74" height="18.74" rx="0.46"/><path class="cls-3" d="M6.79,251.5,7,255.15a1.14,1.14,0,0,1-.36.85c-1,1-1.6.63-1.71-1.06A110.94,110.94,0,0,1,5,239.47a.62.62,0,0,1,.53-.57,21.5,21.5,0,0,1,9.44.5c5.56,1.67,4.82,9.23-.25,11.31-1.09.45-3.57.55-7.43.32a.44.44,0,0,0-.46.43Zm8-10.37a16.58,16.58,0,0,0-7.39-.56.65.65,0,0,0-.56.58,24,24,0,0,0,.25,7.51.61.61,0,0,0,.59.51c4.11.11,10.39.65,9.1-5.83A2.73,2.73,0,0,0,14.75,241.13Z"/><path class="cls-3" d="M46,243c.49.11,4.18,0,3.31,1.36a1,1,0,0,1-.82.34l-2.68.08a.55.55,0,0,0-.53.56l0,8.19A1.47,1.47,0,0,0,46.81,255H47l2.17-.21a.8.8,0,0,1,.79.36c1,2-4.69,1.21-5.81.37a1.26,1.26,0,0,1-.48-.8,25.55,25.55,0,0,1,0-8.3,1.45,1.45,0,0,0-1.19-1.62c-2.66-.46-2.61-1.09.13-1.9a.93.93,0,0,0,.68-.6l.26-1.25a1.33,1.33,0,0,1,.39-.83.7.7,0,0,1,1,.14,2.82,2.82,0,0,1,.27.93l.2,1.16A.79.79,0,0,0,46,243Z"/><path class="cls-3" d="M55.22,250.76c.12,4.29,6.09,4.5,8.79,2.62a.75.75,0,0,1,.83-.06c.79.54.73,1.06-.19,1.55-10.46,5.62-15.72-8.33-7.54-11.57,4.35-1.72,8.22.71,9.14,5.26a1.19,1.19,0,0,1-.9,1.4l-.19,0-9.41.27A.52.52,0,0,0,55.22,250.76Zm9.18-2.61c-.12-4.64-6.34-4.69-8.75-1.75-1.26,1.53-.9,2.29,1.06,2.28l7.18,0A.51.51,0,0,0,64.4,248.15Z"/><rect class="cls-3" x="102.71" y="248.72" width="13.4" height="1.54" rx="0.49" transform="translate(-140.65 357.59) rotate(-89.7)"/><path class="cls-3" d="M36.59,249.64a6.81,6.81,0,1,1-6.81-6.81A6.81,6.81,0,0,1,36.59,249.64Zm-1.69,0a5.07,5.07,0,0,0-5.06-5.06h0a5.06,5.06,0,0,0-5.06,5.06h0a5.06,5.06,0,0,0,10.12,0Z"/><path class="cls-3" d="M92.74,247.53a5.14,5.14,0,0,0,8.29,5.72,1.13,1.13,0,0,1,.86-.31c2.83.45-2.59,3.15-4.21,3.17-12.06.13-7.1-18.6,4-12,.66.39,1.23,1.32.53,1.9a.63.63,0,0,1-.81-.07C98.45,243.57,94.23,243.8,92.74,247.53Z"/><path class="cls-3" d="M126.31,248.08c.09-4.33-5.14-3.88-7.71-2.37a.67.67,0,0,1-.81,0c-.72-.67-.59-1.21.41-1.64q9.06-3.93,10.1,4.64c.23,1.94-.25,4.68-.14,7a.49.49,0,0,1-.46.52h0a3.06,3.06,0,0,1-1.32-.32,1.17,1.17,0,0,0-.89-.08c-3.61,1.24-8.2,1.49-8.54-3.33q-.21-3,2.64-3.25l6.22-.59A.54.54,0,0,0,126.31,248.08Zm.08,3.88c-.19-1.31-2.08-2.11-4.22-1.79h0c-2.14.31-3.72,1.63-3.53,2.93h0c.19,1.31,2.08,2.11,4.23,1.8h0c2.14-.32,3.72-1.64,3.52-2.94Z"/><path class="cls-3" d="M186.47,249.47a6.73,6.73,0,0,1-6.73,6.73h0a6.73,6.73,0,0,1-6.73-6.73h0a6.73,6.73,0,0,1,6.73-6.73h0a6.73,6.73,0,0,1,6.73,6.73Zm-1.45.06a5.2,5.2,0,1,0-5.2,5.2h0A5.2,5.2,0,0,0,185,249.53Z"/><path class="cls-5" d="M202,250.82q2.4,6.44,8.78,3a1.38,1.38,0,0,1,1-.18c1.13.3-.43,1.67-1,1.89-5.5,2.22-11.2-.84-10.3-7,1.12-7.62,11.72-7.4,12.79.62a.89.89,0,0,1-.78,1h-10a.48.48,0,0,0-.48.46A.47.47,0,0,0,202,250.82Zm9.58-2.58c-1-5-7.91-5.31-9.36,0a.43.43,0,0,0,.27.53h8.68a.43.43,0,0,0,.42-.44S211.56,248.27,211.56,248.24Z"/><path class="cls-5" d="M344.48,249.8a6.82,6.82,0,0,1-6.82,6.82h0a6.82,6.82,0,0,1-6.82-6.82h0a6.82,6.82,0,1,1,13.64,0Zm-1.74,0a5.09,5.09,0,0,0-5.08-5.08h0a5.08,5.08,0,1,0,5.08,5.08Z"/><path class="cls-5" d="M380.88,249.81a6.79,6.79,0,0,1-6.79,6.79h0a6.79,6.79,0,1,1,6.79-6.79Zm-1.71,0a5.07,5.07,0,0,0-5.07-5.07h0a5.07,5.07,0,0,0-5.07,5.07h0a5.07,5.07,0,1,0,10.14,0Z"/><path class="cls-5" d="M424.9,255.18c-1.52.57-2.39,1.21-4,1.36-7,.61-6.24-7.36-5.89-12.65a.76.76,0,0,1,.49-.71c2.07-.68,1.17,5.65,1.15,6.7-.07,5,3.74,6.68,7.76,3.63a1.26,1.26,0,0,0,.48-.79,26.59,26.59,0,0,0,.56-7.78c-.19-1.51.22-2.14,1.24-1.88a.66.66,0,0,1,.48.66l0,11.75a1,1,0,0,1-.36.83q-1.12.88-1.41-.81a.39.39,0,0,0-.45-.33Z"/><path class="cls-5" d="M472.13,248.37c0-5-4.67-4.08-8-2.53a.48.48,0,0,1-.64-.2.08.08,0,0,1,0,0c-.84-2.85,7.11-2.9,9-1.2,2.37,2.18,1.34,7.33,1.59,11.3a.69.69,0,0,1-.4.72c-.61.21-1.12,0-1.53-.77a.48.48,0,0,0-.65-.19h0c-2.58,1.51-7.51,1.89-8.48-1.78-1.38-5.17,5.83-4.86,8.64-4.81a.49.49,0,0,0,.51-.47Zm.19,3.47c-.23-1.34-2.19-2.12-4.36-1.74s-3.76,1.76-3.53,3.1,2.19,2.12,4.37,1.75S472.55,253.18,472.32,251.84Z"/><path class="cls-5" d="M512.83,249.81a6.77,6.77,0,0,1-6.77,6.77h0a6.77,6.77,0,0,1-6.77-6.77h0a6.77,6.77,0,0,1,6.77-6.77h0a6.77,6.77,0,0,1,6.77,6.77Zm-1.67,0a5.1,5.1,0,1,0-5.1,5.1A5.1,5.1,0,0,0,511.16,249.85Z"/><path class="cls-3" d="M80.63,244.75A6.23,6.23,0,0,0,75,246.3a1.46,1.46,0,0,0-.44.85,29.47,29.47,0,0,0-.16,8.54.65.65,0,0,1-.37.72,1.27,1.27,0,0,1-1.22-.19,1,1,0,0,1-.36-.84v-11.2a.66.66,0,0,1,.48-.67,1.59,1.59,0,0,1,1.61.65.59.59,0,0,0,.73.16c10.15-5.39,9.31,5.44,9.7,11.1a1,1,0,0,1-.35.85c-1,.72-1.55-.14-1.49-1.1a35.15,35.15,0,0,0-.4-8.3A2.39,2.39,0,0,0,80.63,244.75Z"/><path class="cls-3" d="M138.09,244.42c4.16-2.61,9-1.18,9.26,4.07q.17,3.76.05,7.38a.82.82,0,0,1-.44.75,1.11,1.11,0,0,1-.82,0,.77.77,0,0,1-.44-.75c0-4.11,1.6-12.85-6-10.65a3.14,3.14,0,0,0-2.49,3.27c0,1,.88,9.56-1.69,7.79a1,1,0,0,1-.36-.81L135,244.62a1.18,1.18,0,0,1,.29-.89c.63-.6,1.33-.42,2.09.55A.53.53,0,0,0,138.09,244.42Z"/><path class="cls-5" d="M257.5,251c.21,4.41,6,4.71,8.85,2.75a.77.77,0,0,1,.86-.08c.63.45,0,1.37-.57,1.67-7.32,4.18-14.6-3.57-9.27-10.2,3.65-4.53,10.55-1.24,11.06,4.32a.94.94,0,0,1-.86,1h-.08l-9.5,0a.48.48,0,0,0-.49.47Zm.57-2,8.26-.18a.42.42,0,0,0,.41-.43s0-.06,0-.09a4.78,4.78,0,0,0-9.31-.18.67.67,0,0,0,.44.85A.71.71,0,0,0,258.07,249Z"/><path class="cls-5" d="M275.12,249.5a2.93,2.93,0,0,1-.45-4.84q3.29-2.85,8-.6c.78.38.94.82.47,1.33a.64.64,0,0,1-.8.05c-5.21-3.17-10.41,2.58-4.67,3.42,2.86.42,7.06,1.45,6.08,4.82a3.42,3.42,0,0,1-3,2.61c-1.27.19-8.25.36-7.53-2a.54.54,0,0,1,.69-.31c2.66.75,5.2,1.7,7.77.07a1,1,0,0,0,.46-.78C282.23,250.6,276.92,250.43,275.12,249.5Z"/><path class="cls-5" d="M296.76,255.44c-8.91,4.91-13.85-7.87.17-6.45a.68.68,0,0,0,.74-.61v-.15c-.68-5.07-5.22-3.77-8.48-2.48a.44.44,0,0,1-.59-.18.17.17,0,0,1,0-.1q-.07-.71.87-1.17,5.31-2.67,8.94,1a1.51,1.51,0,0,1,.41.85,43.72,43.72,0,0,1,.28,9.88.41.41,0,0,1-.42.39l-.1,0a2.54,2.54,0,0,1-1.09-.79A.56.56,0,0,0,296.76,255.44Zm1-3.63c-.24-1.38-2.25-2.19-4.5-1.8s-3.86,1.82-3.62,3.2h0c.24,1.38,2.25,2.19,4.49,1.8s3.87-1.82,3.63-3.2Z"/><path class="cls-5" d="M309.71,244.71c.66-.25,5-3,4.59-.52a.77.77,0,0,1-.62.58,9.71,9.71,0,0,0-3.58,1.66,1.13,1.13,0,0,0-.48.8l-.4,8.21a2.14,2.14,0,0,1-.22.94.76.76,0,0,1-1.22.17,1.06,1.06,0,0,1-.36-.85l0-11.71a.61.61,0,0,1,.47-.64c.74-.15,1.17.19,1.29,1a.39.39,0,0,0,.42.35Z"/><path class="cls-5" d="M322.19,244.64c.39-.2,5.11-3,4.19-.41a1,1,0,0,1-.7.56,7.63,7.63,0,0,0-3.71,2,1.29,1.29,0,0,0-.38.85,65.78,65.78,0,0,0-.14,7.68c0,.88-.34,1.69-1.31,1.3a.77.77,0,0,1-.44-.74V244a.61.61,0,0,1,.48-.63c.76-.14,1.25.21,1.47,1.06a.37.37,0,0,0,.44.28A.16.16,0,0,0,322.19,244.64Z"/><path class="cls-5" d="M436.66,244.6q4.83-3.06,8.86.63a.55.55,0,0,0,.73,0c2.72-2.26,6.74-3.14,9-.25,1.87,2.38,1.16,7.67,1.14,10.88a.77.77,0,0,1-.43.75.89.89,0,0,1-.94-.14,1.17,1.17,0,0,1-.28-.88l-.17-8c0-2.19-1.27-3.16-3.67-2.89-5.9.64-4.44,7.18-4.51,11.17a.8.8,0,0,1-.45.75,1.21,1.21,0,0,1-.84,0,.73.73,0,0,1-.42-.75c0-2.38,0-4.75-.14-7.12-.17-4.21-4.82-5.25-7.18-2.41-1.56,1.87-1.23,7.14-1.22,9.52a.84.84,0,0,1-.4.78.87.87,0,0,1-.65.05.75.75,0,0,1-.45-.75l0-12.21a.49.49,0,0,1,.48-.51h0a1.08,1.08,0,0,1,1.11,1.16.25.25,0,0,0,.26.25A.2.2,0,0,0,436.66,244.6Z"/><path class="cls-5" d="M483,244.75c3.21-1,5.76-3.1,8.66.07,2.19,2.39,1.66,7.87,1.52,11.07a.83.83,0,0,1-.46.75,1,1,0,0,1-.92-.12,1,1,0,0,1-.35-.84c0-3.71,1.4-13.35-6.2-10.42a3.61,3.61,0,0,0-2.52,3.64l0,6.76a.87.87,0,0,1-.43.76c-1.34.73-1.87.06-1.58-2a78.29,78.29,0,0,0,.1-10.21.83.83,0,0,1,.4-.77c.78-.42,1.22-.11,1.32.94a.4.4,0,0,0,.43.37Z"/></svg>