<svg id="Layer_1" data-name="Layer 1" xmlns="http://www.w3.org/2000/svg" viewBox="0 0 1722.96 502.1"><defs><style>.cls-1{fill:#1693c6;}</style></defs><path class="cls-1" d="M154.18,433A153.74,153.74,0,0,1,1.54,299.44c-7.24-54.94,11.19-100.91,52.21-138C70.9,145.88,86.57,128.84,103,112.53c14-14,27.86-28.15,41.88-42.13,6-5.94,12.2-5.57,18.6.8q41.18,40.92,82.34,81.84c8.58,8.5,18.17,15.94,26,25.26,21.82,26.06,35,55.85,36.42,89.86,2.82,65.89-25.42,115-82.61,147.36C205.22,427,179,433,154.18,433ZM140.81,198.7v.37c-29.18,0-58.35.05-87.52-.08A6.73,6.73,0,0,0,47,202.3c-20.52,29.71-28.57,62.45-22.49,98,12.56,73.41,81.55,121.05,154.88,107.47C273.06,390.47,317.45,278.16,261,201.42a6.85,6.85,0,0,0-6.42-3.17c-9.36.29-18.72.41-28.09.43Q183.66,198.76,140.81,198.7Zm95.13-22.82c-50.2-41.55-124.23-35.13-162.73,0Zm-114.4-48.33a162.29,162.29,0,0,1,64.9-.11C175.89,116.57,165.41,105.8,155,95c-1.64-1.69-2.25-.1-3.12.77Q137.62,110,123.4,124.25C122.61,125.05,121.34,125.62,121.54,127.55Z"/><path class="cls-1" d="M1249,369.39c-17.65,19.43-47,17.31-65.18,5.74-19.48-12.36-30.71-37.4-26.81-60.35,4.44-26.11,20.87-44.62,45-49.84,17.51-3.8,33.59-1.06,46.49,12.68.27-.42.55-.64.55-.86,0-10.18,0-10.18,10.4-10.18,6.8,0,13.61.1,20.41,0,2.77-.06,4.45.5,3.87,3.71a5.41,5.41,0,0,0,0,.9q.19,53.28.37,106.55c.06,32.12-18.63,53.3-50.49,57.33-19,2.4-37.08.35-53.26-10.91a51.63,51.63,0,0,1-13.36-14c-1.17-1.74-1.65-2.85.73-4.18q13-7.32,25.82-15c2-1.2,2.69-.53,3.84,1.1,8.92,12.66,27.81,16.6,41.22,8.75a20.52,20.52,0,0,0,10.32-16.18C1249.44,379.8,1249,375,1249,369.39Zm.08-45.43c.05-16.18-11.59-27.6-28.18-27.66s-28.66,11.22-28.83,27.13,11.63,27.47,28.29,27.67S1249.05,339.89,1249.09,324Z"/><path class="cls-1" d="M710.37,376.92C709.75,387,709.75,387,700,387c-7,0-13.9.11-20.84.44-3.39.16-4.64-.63-4.64-4.4,0-33.85-.35-67.7-.52-101.55-.1-18.59,0-37.18-.24-55.77,0-3.43.9-4.3,4.27-4.24,8.45.14,16.91-.21,25.37-.29,6.24-.06,6.33,0,6.35,6.46,0,15.12,0,30.23,0,45.35,0,1.59-.43,3.27.45,4.8.35,0,.75.12.88,0,17.14-18,55.89-18.64,77.24,9.27,20.1,26.3,17.31,65.71-6.52,88.53-18,17.26-47.72,19.84-66.27,5.74C713.92,380.1,712.4,378.66,710.37,376.92Zm-.36-49.3c-.07,17.11,10.94,28.66,27.44,28.79,17.1.13,28.34-11,28.41-28.19.07-17.52-11.21-29.26-28-29.2C721.41,299.08,710.07,310.74,710,327.62Z"/><path class="cls-1" d="M878.25,389.75c-35.27,0-62.49-27.34-62.48-62.72,0-35.2,27.64-62.3,63.49-62.26,34.7,0,62.14,27.79,62.11,62.81S913.7,389.77,878.25,389.75Zm.13-90.11c-15.9.06-26.87,11.44-26.83,27.82,0,16.19,11.39,27.77,27.12,27.66s27.18-12.07,27-27.95C905.55,311,894.2,299.59,878.38,299.64Z"/><path class="cls-1" d="M1079.44,389.23c-35.34-.14-62.79-27.9-62.62-63.31a62.33,62.33,0,0,1,63-62.05c35,.16,63.05,28.27,62.72,62.9C1142.22,361.89,1114.45,389.37,1079.44,389.23Zm27.2-62.5c0-16.35-11-27.83-26.83-27.85s-27.16,11.35-27.22,27.53,11.22,27.9,26.89,27.94S1106.62,342.88,1106.64,326.73Z"/><path class="cls-1" d="M1487.58,324.69c0-35.44,27.31-62.29,63.3-62.25,34.91,0,62.24,27.57,62.13,62.61-.11,35.37-27.61,62.42-63.41,62.37C1514.83,387.37,1487.56,359.79,1487.58,324.69Zm62.84,27.85c15.7-.05,27.1-11.83,27-27.88s-11.69-27.69-27.35-27.6-27,11.94-26.94,28S1534.53,352.59,1550.42,352.54Z"/><path class="cls-1" d="M481.64,323.59c0,20.1-.06,40.2.07,60.31,0,3.06-.65,4.18-3.95,4.11-10.12-.21-20.25-.17-30.38,0-2.75,0-3.9-.74-3.73-3.52.11-1.65-.12-3.32-.12-5,0-38.69-.14-77.38-.07-116.07,0-3.42-.66-4.67-4.39-4.57-11.48.31-23,.12-34.45.28-2.72,0-4-.35-4-3.6.18-9.67.1-19.34-.13-29-.07-3.11.72-4.09,4-4.09,28.87,0,57.73-.18,86.59-.32,9.52-.05,19,0,28.55-.3,3.25-.09,4.54.64,4.45,4.21-.25,9.66-.19,19.34,0,29,0,3-.82,3.88-3.82,3.84-11.63-.16-23.28,0-34.91-.13-3.14,0-4.08.87-4.06,4.08.15,20.26.08,40.51.08,60.76Z"/><path class="cls-1" d="M1675.41,386.94c-16.78,0-30.36-3-41.73-12.88a49,49,0,0,1-10.06-12.73c-1.1-1.91-.75-2.86,1.12-3.91Q1638,350,1651,342.32c1.87-1.11,2.56-.54,3.29,1.18,4.67,10.87,16.47,13.13,25.61,10.74,2.92-.77,5.39-2.15,5.85-5.52.49-3.63-2.12-5.07-4.8-6.26-6.52-2.88-13.53-4.19-20.3-6.28a109.9,109.9,0,0,1-13.09-5c-27.88-12.77-23.85-47-5.45-60.05,19-13.5,56.71-14.77,75.89,12.18,1.94,2.74,2.26,4.2-1.29,6-8.1,4-16,8.5-23.86,13-2.13,1.2-3.24,1.12-4.63-1.09-4-6.27-9.91-8.63-17.12-7.56-3,.45-6,1.53-6.56,5.23s2.16,5.32,5.05,6.53c6,2.51,12.44,3.62,18.66,5.44,8.59,2.51,17,5.43,23.78,11.61,17.15,15.7,13.49,45.13-7.07,57A58.48,58.48,0,0,1,1675.41,386.94Z"/><path class="cls-1" d="M1428.61,387.79c-34.3,0-59.85-23.32-63.14-57-3.12-32.1,17.8-60.19,49.79-66.85,24.6-5.12,50.57,5.12,64.13,25.17,1.84,2.71,2.2,4.23-1.22,6.09-8.36,4.53-16.49,9.47-24.65,14.36-2,1.21-3.07,1.31-4.66-.93-6.61-9.31-17.92-12.82-29.39-9.51-10,2.87-17,11.64-18.11,22.63-2.19,22,16.72,36.77,36.91,28.89A20.78,20.78,0,0,0,1449,342c1.31-2.21,2.42-2.43,4.59-1.16,8.34,4.88,16.71,9.7,25.21,14.31,2.68,1.45,3,2.58,1.3,5.12-9.65,14.73-23.29,23.33-40.42,26.63A42,42,0,0,1,1428.61,387.79Z"/><path class="cls-1" d="M997,300c0,27.21-.06,54.43.08,81.64,0,3.47-.76,4.67-4.44,4.56-9.22-.28-18.45-.19-27.67,0-2.77.05-3.63-.71-3.57-3.54.15-7.7,0-15.41-.07-23.12q-.21-58-.4-116.1c0-8.62,0-17.24-.31-25.84-.14-3.55,1.08-4.26,4.37-4.22q13.35.16,26.73-.39c3.86-.16,5.14.77,5.11,4.94-.21,27.36-.11,54.73-.11,82.1Z"/><path class="cls-1" d="M560.58,287.07c7.21-13,18.24-19.06,32.52-20.22,2.28-.18,2.89.34,2.9,2.54,0,11.47.16,22.95.4,34.42.05,2.61-.78,3.39-3.38,3.15a33.67,33.67,0,0,0-15.14,1.87c-10,3.8-16.26,10.86-16.56,21.59-.49,17.35-.29,34.73,0,52.08.07,4.44-1.11,5.58-5.46,5.4-9.05-.36-18.12-.21-27.18,0-2.8.05-3.56-.79-3.56-3.58q.07-55.72-.13-111.47c0-2.8.8-3.59,3.57-3.57,9.36.09,18.72,0,28.08-.24,3.24-.1,4.16,1,4,4.09C560.4,277.74,560.58,282.41,560.58,287.07Z"/><path class="cls-1" d="M648.59,328.13c0,18.28-.1,36.56.08,54.84,0,3.57-.95,4.6-4.52,4.53-9.21-.17-18.42,0-27.63.21-2.69.06-4-.63-3.61-3.5a6.91,6.91,0,0,0,0-.91c-.13-36.55-.2-73.11-.47-109.66,0-3.72.82-4.93,4.67-4.8,8.9.29,17.83.25,26.74,0,3.48-.09,4.59.77,4.55,4.44-.2,18.28-.09,36.56-.09,54.84Z"/><path class="cls-1" d="M1309.74,325.61c0-18.44.07-36.88-.07-55.32,0-3.21.95-4.08,4.08-4,9.22.19,18.44.22,27.66,0,3.32-.08,3.93,1.1,3.93,4.13q-.1,34.91.09,69.82c0,13.29.08,26.59.47,39.87.12,4.15-1.23,5-5.12,4.94-9.06-.25-18.13-.12-27.2.11-3,.07-3.79-.79-3.76-3.76.13-18.59.06-37.18.06-55.77Z"/><path class="cls-1" d="M1027.93,144.61c.08,22.31-17.19,39.84-39.33,39.92a39.34,39.34,0,0,1-39.7-39.15c0-22.71,17.06-40,39.63-40C1010.68,105.38,1027.85,122.47,1027.93,144.61Zm-72.94.28a33.56,33.56,0,1,0,67.12-.26,33.93,33.93,0,0,0-33.56-33.57A33.5,33.5,0,0,0,955,144.89Z"/><path class="cls-1" d="M630.21,216.16a21.28,21.28,0,0,1,21.49,21.09,21.7,21.7,0,0,1-21.21,21.57c-11.81.09-21.92-9.87-21.81-21.52A21.39,21.39,0,0,1,630.21,216.16Z"/><path class="cls-1" d="M1327.17,256.23a21.39,21.39,0,1,1,21.59-21.16A21.72,21.72,0,0,1,1327.17,256.23Z"/><path class="cls-1" d="M635.56,184c-4.79,1.64-7.42,0-9.61-4.09-4.12-7.72-9-15-13.17-22.71-1.7-3.1-3.73-4.19-7.19-4-5.12.3-10.28.21-15.41,0-2.73-.1-3.68.73-3.63,3.55.17,8.16,0,16.33.11,24.48,0,2.37-.37,3.54-3.15,3.55s-3.17-1-3.17-3.43q0-34.91-.24-69.81c0-3.11,1.08-3.89,3.9-3.86,8.92.11,17.84-.13,26.75.09,10.87.26,19.83,7.55,22.06,17.53,2.39,10.75-2.58,21-12.87,25.78-2.73,1.27-2.77,2.22-1.35,4.54C624.33,165.07,629.89,174.54,635.56,184Zm-49.18-53.32c0,4.38.12,8.77,0,13.14-.1,2.64.58,3.76,3.48,3.68,7.09-.19,14.19.09,21.28-.1a16.88,16.88,0,0,0,.14-33.74c-7.24-.22-14.49,0-21.74-.09-2.32,0-3.23.67-3.15,3.08C586.48,121.36,586.38,126,586.38,130.72Z"/><path class="cls-1" d="M1057.94,250.9c5.22-9.22,10.45-17.5,14.66-26.26,2.78-5.78,6.34-7.54,12.59-7.22,11.13.58,22.32.16,33.55.16.6,1.21-.55,1.84-1.16,2.57q-11.61,14.21-23.3,28.34c-.84,1-1.45,2.4-3.08,2.41Z"/><path class="cls-1" d="M804.38,145.8c.17,14.86,9,27.15,22.71,31.59,14.56,4.73,28.74.27,37.55-12.22,1.87-2.66,3-1.24,4.71-.47,2.74,1.23,1.41,2.69.4,4.25-10.71,16.67-36.46,21.43-54,9.52-14.35-9.72-19.62-23.8-16.61-40.6,2.9-16.23,12.78-26.79,28.85-30.72,15.85-3.88,29.58.17,40.31,12.86,1.56,1.85,4.31,4-.14,6.15-2,1-2.68.53-3.88-1.09-9-12.13-23.4-16.39-37.89-11.39C812.88,118.34,804.21,131,804.38,145.8Z"/><path class="cls-1" d="M439.71,186.39c-11.42-.18-20.88-3.86-26.67-14.57-1.61-3-.61-4.25,1.95-5.55,1.43-.72,1.91-.51,2.7.84C424.53,178.72,432.92,182.5,446,180c7-1.34,11.89-6.05,12.77-12.34s-1.95-11.46-9.11-14.48C442,150,434,147.61,426.38,144.46c-6.35-2.61-10.92-7.09-11.53-14.42s1.82-13.68,8-18.18c12-8.82,31-4.72,38.35,8.26.94,1.67,2.2,3.11-.57,4.76s-3.43.31-4.64-1.75a20.78,20.78,0,0,0-27.66-7.64A13.3,13.3,0,0,0,421,127.64c-.11,5.26,2.7,8.78,7.19,11.14,4.84,2.53,10.11,3.94,15.24,5.71a75,75,0,0,1,11.28,4.66c7.17,3.87,11.13,9.63,10.38,18-.77,8.54-5.49,14.18-13.32,17.27A27.12,27.12,0,0,1,439.71,186.39Z"/><path class="cls-1" d="M1084.53,184.22c-11-.55-20.62-4-26.26-14.89-1.38-2.65-.8-3.88,1.71-5.23,3-1.62,2.9.91,3.6,2.28,6.12,11.86,24.93,16,35.43,7.82a13.25,13.25,0,0,0-.53-21.33c-5.3-3.67-11.55-5.12-17.53-7.16a101.3,101.3,0,0,1-10.94-4.3c-14.12-6.75-11.94-25.25-1.6-32.24,12.08-8.16,30.38-4.32,37.8,8.21,1,1.68,2.69,3.3-.38,5.17-2.84,1.72-3.42.21-4.61-1.76A20.68,20.68,0,0,0,1076,112c-5.85,2.11-9.29,6.62-9.67,12.43-.4,6.15,2.74,9.85,8,12.41,5.06,2.46,10.53,3.7,15.71,5.78a110.65,110.65,0,0,1,10.35,4.53c6.9,3.64,10.46,9.29,9.92,17.33-.52,7.63-4.29,13-10.94,16.53C1094.85,183.41,1089.91,184,1084.53,184.22Z"/><path class="cls-1" d="M500,154.57c0-13.89.09-27.79-.06-41.69,0-3.33.51-4.73,4.35-4.65,11.94.24,23.88,0,35.82,0,1.91,0,3.9-.5,3.93,2.74s-1.74,2.86-3.77,2.87c-10.12,0-20.25.18-30.37.06-3,0-3.91.92-3.83,3.87.19,7.1.23,14.22,0,21.31-.12,3.47.74,4.78,4.47,4.62,9.05-.39,18.12-.33,27.18-.49,2.07,0,3.76-.18,3.76,2.91s-1.52,3-3.68,3c-9.37,0-18.74.15-28.11.05-2.69,0-3.9.57-3.58,3.5.85,7.68.38,15.39.36,23.09,0,2.76.81,3.65,3.59,3.6,10.28-.19,20.55-.18,30.83-.17,1.75,0,4-.88,4.07,2.53s-1.94,3-4.08,3.05c-12.24.11-24.47.17-36.71.43-2.93.06-3.91-.78-3.84-3.82.2-8.91.07-17.83.07-26.75Z"/><path class="cls-1" d="M692.3,174.68c3.47-9.45,7-18.89,10.4-28.35,4.13-11.34,8.4-22.63,12.23-34.07,1.42-4.26,3.42-6.06,8.23-4.25q-4.65,12.6-9.33,25.31-8.69,23.58-17.35,47.16c-.76,2.09-1.17,4.07-4.4,4.08s-4-1.67-4.87-4.06c-8.59-22.88-17.27-45.72-25.82-68.62-.47-1.24-2.48-3.34-.11-4.08,2.13-.66,4.93-1.24,6.22,2.41,4.37,12.38,9,24.65,13.59,37l10.2,27.57Z"/><path class="cls-1" d="M755.88,146c0-11.63,0-23.26,0-34.88,0-2.48.24-3.85,3.34-3.82,3.31,0,2.67,2,2.68,3.89q.12,31.26.23,62.52c0,2.1.2,4.21.27,6.32s.62,4.19-2.89,4.24c-3.14,0-3.33-1.41-3.31-3.86.08-11.47,0-22.94,0-34.41Z"/><path class="cls-1" d="M912.62,145.11c0,11.61,0,23.22,0,34.83,0,2.22-.17,3.7-3,3.77s-2.75-1.39-2.75-3.37q-.15-34.83-.35-69.65c0-1.82-.65-4,2.6-4.11,3-.16,3.43,1.14,3.4,3.69-.1,11.61,0,23.23,0,34.84Z"/></svg>